<?xml version="1.0" encoding="utf-8"?>
<!-- Generator: Adobe Illustrator 27.3.1, SVG Export Plug-In . SVG Version: 6.00 Build 0)  -->
<svg version="1.1" id="Layer_1" xmlns="http://www.w3.org/2000/svg" xmlns:xlink="http://www.w3.org/1999/xlink" x="0px" y="0px"
	 viewBox="0 0 500 500" style="enable-background:new 0 0 500 500;" xml:space="preserve">
<style type="text/css">
	.st0{fill:#808285;}
	.st1{fill:#BCBEC0;}
	.st2{fill:#A7A9AC;}
	.st3{fill:#D1D3D4;}
</style>
<g>
	<g>
		<path class="st0" d="M304.61,391.9c-12.67,0-25.54-2.7-37.76-8.4c-22.28-10.39-38.94-29.03-46.91-52.47l3.6-1.22
			c7.63,22.46,23.58,40.3,44.92,50.25c20.7,9.65,44,10.63,65.62,2.77c21.62-7.87,38.84-23.6,48.49-44.3l39.18-84.02
			c-33.11-51.79-79.65-75.82-142.25-73.43l-0.14-3.8c31.3-1.19,59.29,4.36,83.17,16.49c24.73,12.56,45.92,32.61,62.99,59.59
			l0.56,0.88l-40.06,85.91C370.82,372.72,338.4,391.9,304.61,391.9z M337.36,366.13c-0.29,0-0.59-0.01-0.88-0.04
			c-4.07-0.37-7.34-3.16-8.34-7.12c-4.3-17.08-15.91-31.15-31.85-38.58c-14.69-6.85-31.07-7.31-46.13-1.32l-1.41-3.53
			c16.05-6.39,33.5-5.89,49.15,1.4c16.99,7.92,29.35,22.9,33.93,41.1c0.61,2.41,2.52,4.04,4.99,4.26c2.48,0.22,4.64-1.05,5.67-3.3
			c13.13-28.91,0.39-63.36-28.4-76.78c-9.05-4.22-19.07-6.05-28.98-5.29l-0.29-3.79c10.55-0.81,21.23,1.14,30.87,5.64
			c30.67,14.3,44.24,51,30.26,81.8C344.39,364.02,341.08,366.13,337.36,366.13z M369.92,288.55c-2.83,0-5.71-0.6-8.44-1.88
			c-10.02-4.67-14.38-16.63-9.7-26.66c4.67-10.02,16.63-14.38,26.66-9.7c10.02,4.67,14.38,16.63,9.7,26.65
			C384.73,284.26,377.48,288.55,369.92,288.55z M369.97,252.24c-6.13,0-12,3.48-14.76,9.38c-3.79,8.12-0.26,17.82,7.86,21.6
			c8.12,3.78,17.81,0.26,21.6-7.86c3.79-8.12,0.26-17.81-7.86-21.6l0,0C374.6,252.73,372.27,252.24,369.97,252.24z M293.34,250.11
			l-0.88-3.7c4.86-1.16,8.86-4.42,10.97-8.94c3.79-8.12,0.26-17.81-7.86-21.6c-1.24-0.58-2.54-1-3.87-1.25l0.71-3.74
			c1.64,0.31,3.24,0.83,4.77,1.54c10.02,4.67,14.38,16.63,9.7,26.65C304.26,244.66,299.33,248.68,293.34,250.11z"/>
	</g>
	<g>
		<path class="st0" d="M192.83,322.88c-33.79,0-66.21-19.18-81.4-51.77L75.7,194.51c-2.84-6.09-2.26-12.74,1.59-18.25l0,0
			c17.35-24.8,38.64-43.05,63.26-54.22c23.78-10.8,51.46-15.35,82.29-13.55c6.83,0.4,12.64,4.34,15.54,10.55l35.58,76.29
			c20.9,44.81,1.44,98.26-43.37,119.16C218.37,320.19,205.5,322.88,192.83,322.88z M80.41,178.44c-3.05,4.36-3.51,9.64-1.26,14.46
			l35.72,76.61c20.01,42.91,71.2,61.54,114.11,41.53c42.91-20.01,61.54-71.2,41.53-114.11l-35.58-76.29
			c-2.33-4.99-6.82-8.04-12.31-8.36C160.62,108.65,114.1,130.28,80.41,178.44L80.41,178.44z M189.12,280.68
			c-20.75,0-40.75-11.66-50.25-31.51c-1.61-3.36-0.95-7.24,1.7-9.87c2.65-2.64,6.53-3.28,9.89-1.65c14.09,6.84,30.3,6.97,44.47,0.36
			c14.17-6.61,24.49-19.11,28.31-34.29c0.91-3.62,3.9-6.18,7.62-6.51c3.73-0.33,7.11,1.64,8.66,5.04l0,0
			c12.52,27.59,0.37,60.46-27.1,73.27C204.89,279.02,196.95,280.68,189.12,280.68z M146.63,240.56c-1.24,0-2.43,0.49-3.38,1.44
			c-1.51,1.5-1.87,3.62-0.95,5.53c12.19,25.46,42.92,36.47,68.51,24.53c25.59-11.93,36.91-42.55,25.24-68.25
			c-0.88-1.93-2.73-3.02-4.85-2.83c-2.12,0.19-3.75,1.59-4.27,3.65c-4.1,16.3-15.18,29.72-30.39,36.81
			c-15.21,7.1-32.61,6.95-47.74-0.38C148.09,240.73,147.36,240.56,146.63,240.56z M130.37,212.31c-2.09,0-4.18-0.37-6.2-1.1
			c-4.54-1.65-8.17-4.98-10.21-9.36c-2.04-4.38-2.26-9.3-0.61-13.84c1.65-4.54,4.98-8.17,9.36-10.22c4.38-2.04,9.3-2.26,13.84-0.6
			c4.54,1.65,8.17,4.98,10.21,9.36c2.04,4.38,2.26,9.3,0.6,13.84c-1.65,4.54-4.98,8.17-9.36,10.21
			C135.58,211.74,132.98,212.31,130.37,212.31z M130.35,179.89c-2.06,0-4.11,0.45-6.03,1.35l0,0c-3.46,1.62-6.09,4.48-7.4,8.07
			c-1.31,3.59-1.14,7.47,0.48,10.94c1.61,3.46,4.48,6.09,8.07,7.39c3.59,1.31,7.47,1.14,10.94-0.48c3.46-1.61,6.09-4.48,7.39-8.07
			c1.31-3.59,1.14-7.47-0.48-10.93c-1.61-3.46-4.48-6.09-8.07-7.4C133.65,180.18,132,179.89,130.35,179.89z M202.9,178.49
			c-6.82,0-13.36-3.87-16.43-10.45c-4.22-9.05-0.29-19.84,8.76-24.06l0,0c9.04-4.22,19.84-0.29,24.06,8.76
			c2.04,4.38,2.26,9.3,0.6,13.84c-1.65,4.54-4.98,8.17-9.36,10.21C208.05,177.95,205.46,178.49,202.9,178.49z M196.83,147.43
			L196.83,147.43c-7.15,3.33-10.25,11.86-6.92,19.01c3.33,7.15,11.86,10.25,19,6.91c3.46-1.61,6.09-4.48,7.39-8.07
			c1.31-3.59,1.14-7.47-0.48-10.93C212.5,147.2,203.97,144.1,196.83,147.43z"/>
	</g>
</g>
</svg>
