<?xml version="1.0" encoding="utf-8"?>
<!-- Generator: Adobe Illustrator 27.3.1, SVG Export Plug-In . SVG Version: 6.00 Build 0)  -->
<svg version="1.1" id="Layer_1" xmlns="http://www.w3.org/2000/svg" xmlns:xlink="http://www.w3.org/1999/xlink" x="0px" y="0px"
	 viewBox="0 0 500 500" style="enable-background:new 0 0 500 500;" xml:space="preserve">
<style type="text/css">
	.st0{fill:#808285;}
	.st1{fill:#BCBEC0;}
	.st2{fill:#A7A9AC;}
	.st3{fill:#D1D3D4;}
</style>
<g>
	<path class="st0" d="M407.65,404.97h-42.37V271.96l1.64-1.12c27.18-18.56,43.41-49.21,43.41-81.98c0-54.7-44.5-99.2-99.2-99.2
		c-54.7,0-99.2,44.5-99.2,99.2c0,36.63,20.13,70.16,52.53,87.51l4.46,2.39l-22.14,22.14l-36.71-36.72c-1.03-1.03-2.76-1.02-3.79,0
		l-38.61,38.61c-0.5,0.51-0.78,1.18-0.78,1.89v100.28h-46.12V111.65c0-1.48-1.2-2.68-2.68-2.68s-2.68,1.2-2.68,2.68v16.63H92.35
		c-1.48,0-2.68,1.2-2.68,2.68c0,1.48,1.2,2.68,2.68,2.68h23.06v26.82H92.35c-1.48,0-2.68,1.2-2.68,2.68c0,1.48,1.2,2.68,2.68,2.68
		h23.06v26.82H92.35c-1.48,0-2.68,1.2-2.68,2.68c0,1.48,1.2,2.68,2.68,2.68h23.06v26.82H92.35c-1.48,0-2.68,1.2-2.68,2.68
		c0,1.48,1.2,2.68,2.68,2.68h23.06v26.82H92.35c-1.48,0-2.68,1.2-2.68,2.68c0,1.48,1.2,2.68,2.68,2.68h23.06v26.82H92.35
		c-1.48,0-2.68,1.2-2.68,2.68s1.2,2.68,2.68,2.68h23.06v26.82H92.35c-1.48,0-2.68,1.2-2.68,2.68c0,1.48,1.2,2.68,2.68,2.68h23.06
		v26.82H92.35c-1.48,0-2.68,1.2-2.68,2.68s1.2,2.68,2.68,2.68h23.06v26.82H92.35c-1.48,0-2.68,1.2-2.68,2.68
		c0,1.48,1.2,2.68,2.68,2.68h23.06v16.63c0,1.48,1.2,2.68,2.68,2.68h289.57c1.48,0,2.68-1.2,2.68-2.68
		C410.33,406.18,409.13,404.97,407.65,404.97z M205.5,404.97h-33.25V305.8l33.25-33.25V404.97z M244.11,404.97h-33.25V272.55
		l33.25,33.25V404.97z M217.29,188.86c0-51.75,42.1-93.84,93.84-93.84s93.84,42.1,93.84,93.84c0,51.75-42.1,93.85-93.84,93.85
		S217.29,240.61,217.29,188.86z M282.71,404.97h-33.25V305.8l1.1-1.1c10.18-10.2,16.24-16.25,19.89-19.88l3.84-3.83l2.26,0.85
		c1.15,0.43,2.36,0.86,3.59,1.26l2.58,0.85V404.97z M321.32,404.97h-33.25V285.46l4.46,0.85c8.24,1.57,16.36,2.08,24.8,1.56
		l3.99-0.25V404.97z M359.93,404.97l-33.25,0V286.89l3.05-0.58c8.59-1.64,16.94-4.41,24.79-8.25l5.41-2.64V404.97z"/>
	<path class="st0" d="M313.81,172.48v-22.22c0-1.48-1.2-2.68-2.68-2.68c-1.48,0-2.68,1.2-2.68,2.68v22.22
		c0.87-0.14,1.77-0.24,2.68-0.24C312.05,172.24,312.94,172.33,313.81,172.48z"/>
	<path class="st0" d="M294.74,186.19h-22.22c-1.48,0-2.68,1.2-2.68,2.68c0,1.48,1.2,2.68,2.68,2.68h22.22
		c-0.14-0.87-0.24-1.76-0.24-2.68S294.6,187.06,294.74,186.19z"/>
	<path class="st0" d="M296.48,194.05c2.2,6.2,8.09,10.37,14.66,10.37c8.57,0,15.55-6.97,15.55-15.55c0-6.57-4.17-12.46-10.37-14.66
		l-2.5-0.89v-0.84c-0.87-0.14-1.76-0.24-2.68-0.24c-0.91,0-1.81,0.09-2.68,0.24v0.84l-2.5,0.89c-4.38,1.56-7.92,5.1-9.48,9.48
		l-0.89,2.5h-0.84c-0.14,0.87-0.24,1.76-0.24,2.68s0.09,1.8,0.24,2.68h0.84L296.48,194.05z M311.13,176
		c7.11,0,12.87,5.76,12.87,12.87c0,7.11-5.76,12.87-12.87,12.87c-7.11,0-12.87-5.76-12.87-12.87
		C298.26,181.76,304.03,176,311.13,176z"/>
	<path class="st0" d="M311.13,127.2c1.48,0,2.68-1.2,2.68-2.68v-6.44c0-1.48-1.2-2.68-2.68-2.68c-1.48,0-2.68,1.2-2.68,2.68v6.44
		C308.45,125.99,309.66,127.2,311.13,127.2z"/>
	<path class="st0" d="M263.74,145.26c1.04,1.05,2.75,1.04,3.79,0c0.51-0.51,0.78-1.18,0.78-1.89s-0.28-1.39-0.78-1.89l-4.55-4.55
		c-1.04-1.04-2.74-1.04-3.79,0c-1.04,1.04-1.04,2.74,0,3.79L263.74,145.26z"/>
	<path class="st0" d="M246.78,186.19h-6.44c-1.48,0-2.68,1.2-2.68,2.68c0,1.48,1.2,2.68,2.68,2.68h6.44c1.48,0,2.68-1.2,2.68-2.68
		C249.46,187.39,248.26,186.19,246.78,186.19z"/>
	<path class="st0" d="M263.74,232.47l-4.55,4.55c-1.04,1.04-1.04,2.74,0,3.79c1.04,1.04,2.74,1.04,3.79,0l4.55-4.55
		c0.51-0.51,0.79-1.18,0.79-1.89s-0.28-1.39-0.78-1.89C266.48,231.43,264.78,231.43,263.74,232.47z"/>
	<path class="st0" d="M311.13,250.54c-1.48,0-2.68,1.2-2.68,2.68v6.44c0,1.48,1.2,2.68,2.68,2.68c1.48,0,2.68-1.2,2.68-2.68v-6.44
		C313.81,251.74,312.61,250.54,311.13,250.54z"/>
	<path class="st0" d="M358.53,232.47c-0.52-0.52-1.21-0.78-1.89-0.78c-0.69,0-1.37,0.26-1.89,0.78c-0.51,0.5-0.78,1.18-0.78,1.89
		c0,0.71,0.28,1.39,0.78,1.89l4.55,4.55c0.5,0.51,1.18,0.78,1.89,0.78c0.71,0,1.39-0.28,1.89-0.79c0.51-0.51,0.78-1.18,0.78-1.89
		c0-0.71-0.28-1.39-0.78-1.89L358.53,232.47z"/>
	<path class="st0" d="M375.48,191.54h6.44c1.48,0,2.68-1.2,2.68-2.68c0-1.48-1.2-2.68-2.68-2.68h-6.44c-1.48,0-2.68,1.2-2.68,2.68
		C372.8,190.34,374,191.54,375.48,191.54z"/>
	<path class="st0" d="M358.53,145.26l4.55-4.55c0.51-0.51,0.78-1.18,0.78-1.89s-0.28-1.39-0.78-1.89c-0.51-0.51-1.18-0.78-1.89-0.78
		c-0.71,0-1.39,0.28-1.89,0.78l-4.55,4.55c-1.04,1.04-1.04,2.74,0,3.79C355.78,146.3,357.48,146.3,358.53,145.26z"/>
</g>
</svg>
