<?xml version="1.0" encoding="utf-8"?>
<!-- Generator: Adobe Illustrator 27.3.1, SVG Export Plug-In . SVG Version: 6.00 Build 0)  -->
<svg version="1.1" id="Layer_1" xmlns="http://www.w3.org/2000/svg" xmlns:xlink="http://www.w3.org/1999/xlink" x="0px" y="0px"
	 viewBox="0 0 500 500" style="enable-background:new 0 0 500 500;" xml:space="preserve">
<style type="text/css">
	.st0{fill:#808285;}
	.st1{fill:#BCBEC0;}
	.st2{fill:#A7A9AC;}
	.st3{fill:#D1D3D4;}
</style>
<g>
	<g>
		<path class="st0" d="M393.23,351.47h-33.84c-6.72,0-12.18-5.46-12.18-12.18V206.08c0-6.72,5.46-12.18,12.18-12.18h33.84
			c6.72,0,12.18,5.46,12.18,12.18v133.22C405.41,346.01,399.95,351.47,393.23,351.47z M359.39,196.62c-5.21,0-9.45,4.24-9.45,9.45
			v133.22c0,5.21,4.24,9.45,9.45,9.45h33.84c5.21,0,9.45-4.24,9.45-9.45V206.08c0-5.21-4.24-9.45-9.45-9.45H359.39z M140.61,351.47
			h-33.85c-6.72,0-12.18-5.46-12.18-12.18v-44.46c0-6.72,5.46-12.18,12.18-12.18h33.85c6.72,0,12.18,5.46,12.18,12.18v44.46
			C152.79,346,147.33,351.47,140.61,351.47z M106.77,285.37c-5.21,0-9.45,4.24-9.45,9.45v44.46c0,5.21,4.24,9.45,9.45,9.45h33.85
			c5.21,0,9.45-4.24,9.45-9.45v-44.46c0-5.21-4.24-9.45-9.45-9.45H106.77z M180.16,316.35c-0.75,0-1.36-0.61-1.36-1.36v-76.42
			c0-6.72,5.46-12.18,12.18-12.18h33.84c6.72,0,12.18,5.46,12.18,12.18v46.31c0,0.75-0.61,1.36-1.36,1.36
			c-0.75,0-1.36-0.61-1.36-1.36v-46.31c0-5.21-4.24-9.45-9.46-9.45h-33.84c-5.21,0-9.46,4.24-9.46,9.45v76.42
			C181.52,315.74,180.91,316.35,180.16,316.35z M319.84,316.35c-0.75,0-1.36-0.61-1.36-1.36v-45.73c0-5.21-4.24-9.45-9.45-9.45
			h-33.85c-5.21,0-9.45,4.24-9.45,9.45v15.62c0,0.75-0.61,1.36-1.36,1.36s-1.36-0.61-1.36-1.36v-15.62
			c0-6.72,5.46-12.18,12.18-12.18h33.85c6.72,0,12.18,5.46,12.18,12.18v45.73C321.21,315.74,320.6,316.35,319.84,316.35z
			 M117.81,248.77c-0.39,0-0.78-0.17-1.04-0.49c-0.48-0.58-0.41-1.44,0.17-1.92l94.91-79.62c0.55-0.46,1.36-0.42,1.86,0.1
			l40.68,42.36c3.59,3.77,8.39,5.96,13.54,6.15c5.2,0.21,10.18-1.63,14.04-5.12l73.13-66.17c0.54-0.49,1.36-0.47,1.88,0.05
			l12.29,12.29c1.46,1.46,3.42,1.94,5.39,1.33c1.97-0.61,3.32-2.12,3.69-4.14l10.29-54.82c0.34-1.83-0.17-3.48-1.48-4.79
			c-1.31-1.31-2.97-1.83-4.79-1.48l-54.81,10.29c-2.02,0.38-3.54,1.73-4.14,3.69c-0.61,1.97-0.12,3.93,1.33,5.39l11.88,11.88
			c0.26,0.26,0.41,0.62,0.4,1c-0.01,0.37-0.17,0.73-0.45,0.98l-66.52,60.19c-0.55,0.49-1.39,0.47-1.9-0.07l-40.48-42.15
			c-7.28-7.66-18.88-8.32-27-1.54l-100.4,84.23c-0.58,0.48-1.44,0.41-1.92-0.17c-0.48-0.58-0.41-1.44,0.17-1.92l100.41-84.23
			c9.24-7.71,22.44-6.95,30.72,1.75L269.19,183l64.48-58.34L322.8,113.8c-2.16-2.16-2.91-5.2-2.01-8.12
			c0.9-2.92,3.24-5.01,6.24-5.57l54.81-10.29c2.71-0.51,5.27,0.28,7.22,2.23c1.95,1.95,2.74,4.51,2.23,7.22l-10.29,54.81
			c-0.56,3.01-2.64,5.34-5.57,6.25c-2.92,0.9-5.96,0.15-8.12-2.01l-11.37-11.37l-72.17,65.3c-4.4,3.98-10.07,6.04-15.97,5.82
			c-5.86-0.22-11.33-2.71-15.41-6.99l-39.79-41.43l-93.93,78.8C118.42,248.66,118.11,248.77,117.81,248.77z"/>
	</g>
	<g>
		<path class="st0" d="M250,410.33c-32.58,0-62.44-19.84-79.87-53.06c-1.55-2.95-1.55-6.47,0-9.42
			c17.43-33.22,47.29-53.06,79.87-53.06s62.44,19.84,79.87,53.06c1.55,2.95,1.55,6.47,0,9.42C312.44,390.5,282.58,410.33,250,410.33
			z M250,297.52c-31.55,0-60.51,19.29-77.46,51.6c-1.13,2.16-1.13,4.73,0,6.89c16.95,32.31,45.91,51.6,77.46,51.6
			s60.51-19.29,77.46-51.6c1.13-2.16,1.13-4.73,0-6.89C310.51,316.81,281.55,297.52,250,297.52z"/>
	</g>
	<g>
		<path class="st0" d="M250,390.47c-20.9,0-37.91-17-37.91-37.91c0-20.9,17.01-37.91,37.91-37.91s37.91,17,37.91,37.91
			C287.91,373.47,270.9,390.47,250,390.47z M250,317.38c-19.4,0-35.18,15.78-35.18,35.18c0,19.4,15.78,35.18,35.18,35.18
			s35.18-15.78,35.18-35.18C285.18,333.17,269.4,317.38,250,317.38z"/>
	</g>
	<g>
		<path class="st0" d="M250,371.49c-10.44,0-18.93-8.49-18.93-18.93c0-2.04,0.33-4.06,0.97-5.98c0.24-0.71,1.01-1.1,1.72-0.86
			c0.71,0.24,1.1,1.01,0.86,1.72c-0.55,1.65-0.83,3.37-0.83,5.12c0,8.93,7.27,16.2,16.2,16.2c8.93,0,16.2-7.27,16.2-16.2
			c0-8.93-7.27-16.2-16.2-16.2c-2.12,0-4.19,0.41-6.14,1.21c-0.7,0.29-1.49-0.05-1.78-0.74c-0.29-0.7,0.05-1.49,0.74-1.78
			c2.28-0.94,4.7-1.41,7.18-1.41c10.44,0,18.93,8.49,18.93,18.93C268.93,363,260.44,371.49,250,371.49z"/>
	</g>
</g>
</svg>
