<?xml version="1.0" encoding="utf-8"?>
<!-- Generator: Adobe Illustrator 27.3.1, SVG Export Plug-In . SVG Version: 6.00 Build 0)  -->
<svg version="1.1" id="Layer_1" xmlns="http://www.w3.org/2000/svg" xmlns:xlink="http://www.w3.org/1999/xlink" x="0px" y="0px"
	 viewBox="0 0 500 500" style="enable-background:new 0 0 500 500;" xml:space="preserve">
<style type="text/css">
	.st0{fill:#808285;}
	.st1{fill:#BCBEC0;}
	.st2{fill:#A7A9AC;}
	.st3{fill:#D1D3D4;}
</style>
<g>
	<path class="st0" d="M367.03,194.36c0-60.42-35.98-92.35-104.06-92.35h-74.62l-0.38-1.45c-1.69-6.41-7.49-10.9-14.1-10.9
		c-8.05,0-14.6,6.55-14.6,14.6s6.55,14.6,14.6,14.6c6.61,0,12.41-4.48,14.1-10.89l0.38-1.45h74.62c66.06,0,99.55,29.56,99.55,87.86
		c0.42,42.55,12.46,57.48,20.43,67.36c4.4,5.46,6.9,8.79,6.9,13.84c0,9.55-5.2,10.04-11.22,10.6c-5.58,0.52-10.59,1.51-10.59,7.87
		c0,1.57,0.36,4.58,0.72,7.49c0.33,2.76,0.68,5.62,0.66,7.08l-0.01,0.41l-0.17,0.38c-0.36,0.79-1.15,1.32-2.9,2.28
		c-2.3,1.27-4.36,2.63-4.36,5.36c0,1.36,0.94,2.2,2.49,3.42c2.4,1.9,3.79,3.29,3.79,4.82c0,2.15-2.34,3.37-5.06,4.77
		c-4.03,2.09-7.36,4.18-7.36,8.57c0,0.81,0.36,1.31,0.95,2.06c1.28,1.63,4.67,5.94,4.67,12.09c0,10.4-6.94,14.21-8.21,14.47
		l-0.4,0.04l-32.88-0.05c-26.83,0-27.21,19.54-27.54,36.78c-0.04,2.03-0.08,4.06-0.15,6.07l4.5,0.23c0.08-2.06,0.12-4.13,0.16-6.16
		c0.39-20.11,1.71-32.41,23.03-32.41l32.88,0.05c4.45,0,13.12-6.71,13.12-19.02c0-4.76-1.61-9.39-4.79-13.77l-1.01-1.38l1.24-1.18
		c0.91-0.86,2.42-1.64,3.87-2.4c4.1-2.13,7.49-4.25,7.49-8.77c0-2.43-1.21-4.63-3.8-6.95l-2.01-1.79l2.33-1.35
		c2.3-1.33,4.65-3.17,4.65-6.78c0-1.54-0.34-4.38-0.71-7.4c-0.35-2.86-0.69-5.7-0.69-6.98c0-0.02,0-0.04,0-0.06l-0.66-0.98
		l1.47-1.11c0.9-0.68,2.49-0.93,5.7-1.23c6.09-0.57,15.3-1.43,15.3-15.09c0-6.89-3.48-11.2-7.89-16.67l1.51-1.23l-1.52,1.22
		C378.43,248.96,367.43,235.33,367.03,194.36z M173.87,114.36c-5.56,0-10.09-4.53-10.09-10.09c0-5.56,4.53-10.09,10.09-10.09
		c5.56,0,10.09,4.53,10.09,10.09C183.96,109.83,179.43,114.36,173.87,114.36z"/>
	<path class="st0" d="M134.72,318.62l-0.38-1.45c-1.69-6.41-7.49-10.89-14.1-10.89c-8.05,0-14.6,6.55-14.6,14.6
		c0,8.05,6.55,14.6,14.6,14.6c6.61,0,12.41-4.48,14.1-10.89l0.38-1.45h48.24l0.45,87.1l4.51-0.02l-0.47-91.58H134.72z
		 M120.24,330.97c-5.56,0-10.09-4.53-10.09-10.09c0-5.56,4.53-10.09,10.09-10.09c5.56,0,10.09,4.53,10.09,10.09
		C130.33,326.44,125.8,330.97,120.24,330.97z"/>
	<path class="st0" d="M232.54,184.12c-2.67-5.58-8.01-9.09-14.17-9.25c-6.72,0.02-12.27,3.54-14.86,9.43l-38.65,84.2
		c-0.48,1.05-0.13,1.87,0.13,2.27c0.22,0.35,0.88,1.15,2.21,1.15c0.77,0,1.72-0.31,2.09-1.17l0.05-0.12l38.59-84.05
		c1.72-4.03,5.5-6.43,10.13-6.43c4.36,0,8.27,2.63,9.97,6.71l0.05,0.12l32.31,83.55c0.4,1.06,1.14,1.58,2.21,1.58
		c0.82,0,1.62-0.45,2.12-1.19c0.27-0.39,0.66-1.18,0.3-2.07l-2.75-6.87h0.47l-30.19-77.79V184.12z"/>
	<path class="st0" d="M215.37,231.85c-2.98,0-5.32,2.34-5.32,5.32c0,3.14,2.29,5.51,5.32,5.51c3.03,0,5.32-2.37,5.32-5.51
		C220.68,234.18,218.35,231.85,215.37,231.85z"/>
	<path class="st0" d="M293.55,173.35c-1.18,0-2.45,0.94-2.45,2.45v91.58c0,1.51,1.27,2.45,2.45,2.45c1.51,0,2.64-1.05,2.64-2.45
		v-91.58C296.19,174.4,295.05,173.35,293.55,173.35z"/>
</g>
</svg>
