<?xml version="1.0" encoding="utf-8"?>
<!-- Generator: Adobe Illustrator 27.3.1, SVG Export Plug-In . SVG Version: 6.00 Build 0)  -->
<svg version="1.1" id="Layer_1" xmlns="http://www.w3.org/2000/svg" xmlns:xlink="http://www.w3.org/1999/xlink" x="0px" y="0px"
	 viewBox="0 0 500 500" style="enable-background:new 0 0 500 500;" xml:space="preserve">
<style type="text/css">
	.st0{fill:#808285;}
	.st1{fill:#BCBEC0;}
	.st2{fill:#A7A9AC;}
	.st3{fill:#D1D3D4;}
</style>
<g>
	<g>
		<g>
			<g id="_x30_3_x2C__Inflation_x2C__money_x2C__growth_x2C__rising_x2C__economic_crises_x2C__finance">
				<g>
					<g id="XMLID_111_">
						<rect id="XMLID_164_" x="338.57" y="321.06" class="st1" width="28.44" height="85.33"/>
						<rect id="XMLID_160_" x="75.49" y="363.72" class="st2" width="177.76" height="42.66"/>
						<rect id="XMLID_159_" x="75.49" y="278.39" class="st3" width="177.76" height="42.66"/>
					</g>
				</g>
			</g>
		</g>
	</g>
	<g>
		<path class="st0" d="M424.74,255.19h-28.44c-1.03,0-1.87,0.84-1.87,1.87v147.45h-24.7v-83.45c0-1.03-0.84-1.87-1.87-1.87h-28.44
			c-1.03,0-1.87,0.84-1.87,1.87v83.45h-24.7V349.5c0-1.03-0.84-1.87-1.87-1.87h-28.44c-1.03,0-1.87,0.84-1.87,1.87v55.01h-24.7
			v-82.8l55.45-69.32l34.15,20.49c0.78,0.47,1.77,0.31,2.36-0.37l71.83-82.08l3.13,31.26c0.05,0.5,0.29,0.95,0.68,1.26
			c0.39,0.32,0.85,0.46,1.37,0.41c0.49-0.05,0.94-0.29,1.26-0.68c0.32-0.39,0.46-0.87,0.42-1.37l-3.57-35.57
			c-0.01-0.11-0.03-0.21-0.06-0.3c-0.04-0.13-0.08-0.23-0.12-0.32c-0.06-0.11-0.11-0.2-0.16-0.27l-0.08-0.1
			c-0.03-0.04-0.1-0.1-0.17-0.17l-0.29-0.22c-0.09-0.06-0.18-0.1-0.27-0.14c-0.14-0.05-0.24-0.09-0.35-0.11
			c-0.12-0.02-0.24-0.03-0.35-0.03l-0.34-0.01h-35.24c-1.03,0-1.87,0.84-1.87,1.87c0,1.03,0.84,1.87,1.87,1.87h31.43l-0.35,0.4
			l-70.57,80.65l-0.17-0.11l-34.04-20.42c-0.8-0.48-1.84-0.29-2.42,0.44l-53.56,66.94v-79.99c0-1.03-0.84-1.87-1.87-1.87h-60.55
			l13.54-9.53c19.48-13.7,31.1-36.02,31.1-59.71c0-40.24-32.74-72.97-72.97-72.97c-40.24,0-72.98,32.74-72.98,72.97
			c0,23.68,11.63,46.01,31.1,59.71l13.54,9.53H76.33c-1.03,0-1.87,0.84-1.87,1.87v170.65c0,1.03,0.84,1.87,1.87,1.87h348.41
			c1.03,0,1.87-0.84,1.87-1.87V257.06C426.61,256.03,425.77,255.19,424.74,255.19z M95.97,164.63c0-38.18,31.06-69.23,69.24-69.23
			c38.18,0,69.23,31.06,69.23,69.23c0,38.15-31.04,69.21-69.19,69.23C127.05,233.83,95.97,202.77,95.97,164.63z M78.19,237.6h174.02
			v38.92H78.19V237.6z M252.22,404.51H78.2v-38.92h174.02V404.51z M252.22,361.85H78.2v-38.92h174.02V361.85z M252.22,319.19H78.2
			v-38.92h174.02V319.19z M309.1,404.51h-24.7v-53.14h24.7V404.51z M365.98,404.51h-24.7v-81.59h24.7V404.51z M422.87,404.51h-24.7
			V258.93h24.7V404.51z"/>
		<path class="st0" d="M181.3,178.85c0-8.87-7.22-16.09-16.09-16.09c-6.81,0-12.35-5.54-12.35-12.35c0-6.71,5.45-12.25,12.16-12.35
			l0.16,0h14.25c1.03,0,1.87-0.84,1.87-1.87s-0.84-1.87-1.87-1.87h-12.35v-12.35c0-1.03-0.84-1.87-1.87-1.87
			c-1.03,0-1.87,0.84-1.87,1.87v12.05l-3.49,1.24c-6.42,2.28-10.74,8.37-10.74,15.15c0,8.87,7.22,16.09,16.09,16.09
			c3.3,0,6.4,1.29,8.73,3.62c2.33,2.33,3.61,5.43,3.61,8.73c0,3.3-1.28,6.4-3.61,8.73c-2.33,2.33-5.43,3.62-8.73,3.62h-14.22
			c-1.03,0-1.87,0.84-1.87,1.87c0,1.03,0.84,1.87,1.87,1.87h12.35v12.35c0,1.03,0.84,1.87,1.87,1.87c1.03,0,1.87-0.84,1.87-1.87
			v-12.06l3.49-1.24C176.98,191.73,181.3,185.64,181.3,178.85z"/>
	</g>
</g>
</svg>
