<?xml version="1.0" encoding="utf-8"?>
<!-- Generator: Adobe Illustrator 27.3.1, SVG Export Plug-In . SVG Version: 6.00 Build 0)  -->
<svg version="1.1" id="Layer_1" xmlns="http://www.w3.org/2000/svg" xmlns:xlink="http://www.w3.org/1999/xlink" x="0px" y="0px"
	 viewBox="0 0 500 500" style="enable-background:new 0 0 500 500;" xml:space="preserve">
<style type="text/css">
	.st0{fill:#808285;}
	.st1{fill:#BCBEC0;}
	.st2{fill:#A7A9AC;}
	.st3{fill:#D1D3D4;}
</style>
<g>
	<path class="st0" d="M402.5,123.58h-305c-13,0-23.57,10.58-23.57,23.57v205.7c0,13,10.58,23.57,23.57,23.57h305
		c13,0,23.57-10.58,23.57-23.57v-205.7C426.08,134.15,415.5,123.58,402.5,123.58z M421.49,352.85c0,10.47-8.52,18.99-18.99,18.99
		h-305c-10.47,0-18.99-8.52-18.99-18.99v-205.7c0-10.47,8.52-18.98,18.99-18.98h305c10.47,0,18.99,8.52,18.99,18.98V352.85z"/>
	<path class="st0" d="M367.04,151.95H104.59c-1.26,0-2.29,1.03-2.29,2.29v191.51c0,1.26,1.03,2.29,2.29,2.29h262.45
		c1.26,0,2.29-1.03,2.29-2.29V154.24C369.33,152.98,368.3,151.95,367.04,151.95z M364.74,343.46H106.88V156.54h257.86V343.46z"/>
	<path class="st0" d="M395.41,226.43c-1.26,0-2.29,1.03-2.29,2.29v42.56c0,1.27,1.03,2.29,2.29,2.29c1.26,0,2.29-1.03,2.29-2.29
		v-42.56C397.7,227.46,396.67,226.43,395.41,226.43z"/>
	<path class="st0" d="M235.81,316.13c36.47,0,66.13-29.67,66.13-66.13s-29.67-66.13-66.13-66.13s-66.13,29.67-66.13,66.13
		S199.35,316.13,235.81,316.13z M235.81,188.46c33.94,0,61.54,27.61,61.54,61.54s-27.61,61.54-61.54,61.54s-61.54-27.61-61.54-61.54
		S201.88,188.46,235.81,188.46z"/>
	<path class="st0" d="M209.83,276.81L209.83,276.81c0.35,0.2,1.26,0.6,2.29,0.01l49.65-28.37c1.07-0.61,1.18-1.59,1.15-2.12
		c-0.03-0.53-0.25-1.5-1.38-1.98l-49.65-21.28c-0.3-0.13-0.6-0.19-0.9-0.19c-0.59,0-1.05,0.24-1.27,0.39
		c-0.31,0.2-1.03,0.8-1.03,1.91v49.65C208.69,275.97,209.41,276.56,209.83,276.81z M213.28,228.65l42.22,18.09l-42.22,24.13V228.65z
		"/>
</g>
</svg>
