<?xml version="1.0" encoding="utf-8"?>
<!-- Generator: Adobe Illustrator 27.3.1, SVG Export Plug-In . SVG Version: 6.00 Build 0)  -->
<svg version="1.1" id="Layer_1" xmlns="http://www.w3.org/2000/svg" xmlns:xlink="http://www.w3.org/1999/xlink" x="0px" y="0px"
	 viewBox="0 0 500 500" style="enable-background:new 0 0 500 500;" xml:space="preserve">
<style type="text/css">
	.st0{fill:#808285;}
	.st1{fill:#BCBEC0;}
	.st2{fill:#A7A9AC;}
	.st3{fill:#D1D3D4;}
</style>
<g>
	<path class="st0" d="M291.66,181.02c-24.13,0-46.81,9.4-63.87,26.46c-17.06,17.06-26.46,39.74-26.46,63.87s9.4,46.81,26.46,63.87
		c17.06,17.06,39.75,26.46,63.87,26.46s46.81-9.4,63.87-26.46c17.06-17.06,26.46-39.74,26.46-63.87s-9.4-46.81-26.46-63.87
		C338.47,190.42,315.79,181.02,291.66,181.02z M352.49,332.18c-16.25,16.25-37.85,25.2-60.83,25.2c-22.98,0-44.58-8.95-60.83-25.2
		c-16.25-16.25-25.2-37.85-25.2-60.83c0-22.98,8.95-44.58,25.2-60.83c16.25-16.25,37.85-25.19,60.83-25.19
		c22.98,0,44.58,8.95,60.83,25.19c16.25,16.25,25.19,37.85,25.19,60.83C377.68,294.33,368.73,315.93,352.49,332.18z"/>
	<path class="st0" d="M374.63,167.83h-14.2l-8.48-27.12c-2.01-6.44-4.52-11.32-7.66-14.93c-3.99-4.58-8.94-6.9-14.7-6.9h-83.01
		c-4.83,0-9.04,1.76-12.51,5.24c-3.32,3.32-5.94,8.29-7.58,14.38l-7.91,29.33h-98.75c-0.7,0-1.4,0.02-2.1,0.05l-0.54,0.03
		c-0.6,0.04-1.11,0.07-1.62,0.12l-0.63,0.06c-0.64,0.07-1.29,0.15-1.93,0.25l-0.65,0.11c-0.44,0.07-0.88,0.15-1.31,0.24
		c-0.29,0.06-0.59,0.12-0.88,0.18c-0.36,0.08-0.72,0.16-1.08,0.25c-0.48,0.12-0.96,0.24-1.44,0.37l-0.17,0.05
		c-0.3,0.09-0.6,0.17-0.9,0.26c-0.38,0.12-0.76,0.24-1.13,0.37l-0.65,0.22c-0.4,0.14-0.8,0.28-1.2,0.43l-0.16,0.06
		c-1.51,0.59-2.91,1.21-4.28,1.91l-0.13,0.07c-4.31,2.21-8.22,5.05-11.61,8.45c-4.26,4.26-7.61,9.23-9.93,14.77l-0.93,2.09h0.04
		l-0.75,2.5c-1.27,4.25-1.91,8.64-1.91,13.05v156.22c0,2.98,1.17,5.78,3.28,7.9c2.12,2.12,4.92,3.28,7.9,3.28H414.9
		c2.98,0,5.78-1.17,7.9-3.28c2.12-2.12,3.28-4.92,3.28-7.9V219.28c0-13.69-5.37-26.59-15.11-36.34
		C401.22,173.2,388.32,167.83,374.63,167.83z M230.61,139.69c1.46-5.4,3.7-9.73,6.5-12.52c2.64-2.64,5.82-3.98,9.47-3.98h83.01
		c4.49,0,8.35,1.82,11.49,5.41c0.36,0.41,0.71,0.85,1.04,1.3l0.32,0.45c0.22,0.31,0.44,0.62,0.65,0.94c0.11,0.17,0.21,0.33,0.32,0.5
		c0.22,0.35,0.4,0.66,0.58,0.98c0.11,0.19,0.22,0.39,0.33,0.58c0.18,0.33,0.36,0.68,0.53,1.02l0.26,0.52
		c0.23,0.48,0.45,0.95,0.66,1.43l0.08,0.17c0.24,0.55,0.46,1.1,0.68,1.66l0.21,0.57c0.1,0.26,0.2,0.53,0.29,0.81l0.93,2.6h-118
		L230.61,139.69z M85.15,190.84c1.56-2.34,3.34-4.53,5.3-6.49c2.24-2.24,4.76-4.24,7.49-5.94c0.3-0.19,0.61-0.37,0.91-0.55
		c0.53-0.31,1.07-0.62,1.62-0.91c0.48-0.25,0.96-0.5,1.45-0.74c0.36-0.17,0.73-0.34,1.09-0.5c0.48-0.21,0.88-0.38,1.28-0.55
		l0.15-0.06c0.32-0.13,0.64-0.26,0.96-0.38c0.75-0.28,1.46-0.52,2.16-0.74c0.21-0.07,0.43-0.13,0.65-0.19l0.27-0.08
		c0.55-0.16,1.12-0.31,1.68-0.44c0.3-0.07,0.61-0.15,0.91-0.21c0.93-0.2,1.74-0.35,2.49-0.46l0.51-0.07
		c0.73-0.1,1.48-0.18,2.23-0.25c0.25-0.02,0.5-0.04,0.76-0.06c1.05-0.07,1.92-0.1,2.74-0.1h37.4l0.02,2.34
		c0,5.16-2.02,10.03-5.69,13.7c-3.67,3.67-8.53,5.69-13.68,5.69H83.14L85.15,190.84z M137.8,376.81H85.1
		c-1.83,0-3.55-0.72-4.85-2.02c-1.3-1.3-2.02-3.03-2.02-4.85V213.72c0-4.9,0.86-9.7,2.54-14.28l0.47-1.27h56.63
		c6.3,0,12.24-2.47,16.72-6.95c4.48-4.48,6.95-10.42,6.95-16.72l-0.05-2.36h22.12l-0.06,2.01c-0.75,24.79-8.04,43.69-21.67,56.17
		c-9.76,8.93-19.88,11.8-24.08,12.65V376.81z M421.77,369.94c0,1.83-0.72,3.55-2.02,4.85c-1.3,1.3-3.03,2.02-4.85,2.02H142.11
		V246.28l1.34-0.44c12.87-4.19,42.95-19.59,44.42-71.81l0.05-1.89h33.94l6.93-25.69h120.46l8.03,25.69h17.36
		c12.54,0,24.36,4.92,33.29,13.85c8.93,8.93,13.85,20.75,13.85,33.29V369.94z"/>
	<path class="st0" d="M291.66,251.24c-5.37,0-10.42,2.09-14.22,5.89c-3.8,3.8-5.89,8.85-5.89,14.22c0,5.37,2.09,10.42,5.89,14.22
		c3.8,3.8,8.85,5.89,14.22,5.89c5.37,0,10.42-2.09,14.22-5.89c3.8-3.8,5.89-8.85,5.89-14.22c0-5.37-2.09-10.42-5.89-14.22
		C302.08,253.33,297.03,251.24,291.66,251.24z M302.83,282.53c-2.98,2.99-6.95,4.63-11.18,4.63c-4.22,0-8.19-1.64-11.18-4.63
		c-2.99-2.98-4.63-6.95-4.63-11.18s1.64-8.19,4.63-11.18c2.98-2.98,6.95-4.63,11.18-4.63s8.19,1.64,11.18,4.63
		c2.99,2.98,4.63,6.95,4.63,11.18S305.82,279.54,302.83,282.53z"/>
	<path class="st0" d="M393.89,191.43c-3.36,0-6.42,2.18-8.62,6.15c-1.99,3.58-3.08,8.26-3.08,13.19c0,4.93,1.09,9.62,3.08,13.19
		c2.2,3.96,5.26,6.15,8.62,6.15c3.36,0,6.42-2.18,8.62-6.15c1.99-3.58,3.08-8.26,3.08-13.19c0-4.93-1.09-9.62-3.08-13.19
		C400.31,193.62,397.25,191.43,393.89,191.43z M398.77,221.88c-1.8,3.24-3.65,3.92-4.88,3.92c-1.23,0-3.08-0.68-4.88-3.92
		c-1.62-2.92-2.51-6.86-2.51-11.11c0-4.25,0.89-8.19,2.51-11.11c1.8-3.24,3.65-3.92,4.88-3.92c1.23,0,3.08,0.68,4.88,3.92
		c1.62,2.92,2.51,6.86,2.51,11.11C401.28,215.02,400.39,218.96,398.77,221.88z"/>
	<path class="st0" d="M127.66,176.75c-1.68,0-3.27,0.66-4.46,1.85c-1.19,1.19-1.85,2.77-1.85,4.46c0,1.68,0.66,3.27,1.85,4.46
		c1.19,1.19,2.77,1.85,4.46,1.85c1.68,0,3.27-0.66,4.46-1.85c1.19-1.19,1.85-2.77,1.85-4.46c0-1.68-0.66-3.27-1.85-4.46
		C130.92,177.41,129.34,176.75,127.66,176.75z M130.86,186.25c-0.85,0.85-1.99,1.32-3.2,1.32c-1.21,0-2.34-0.47-3.2-1.32
		c-0.85-0.85-1.32-1.99-1.32-3.2c0-1.21,0.47-2.35,1.33-3.2c1.7-1.7,4.69-1.7,6.4,0c0.85,0.85,1.32,1.99,1.32,3.2
		C132.18,184.26,131.71,185.4,130.86,186.25z"/>
	<path class="st0" d="M291.66,221.6c-13.29,0-25.78,5.17-35.18,14.57c-9.4,9.4-14.57,21.89-14.57,35.18s5.17,25.78,14.57,35.18
		c9.4,9.4,21.89,14.57,35.18,14.57s25.78-5.17,35.18-14.57c9.4-9.4,14.57-21.89,14.57-35.18c0-13.29-5.17-25.78-14.57-35.18
		C317.44,226.78,304.95,221.6,291.66,221.6z M291.66,305.93c-19.07,0-34.58-15.51-34.58-34.58s15.51-34.58,34.58-34.58
		s34.58,15.51,34.58,34.58S310.72,305.93,291.66,305.93z"/>
</g>
</svg>
