<?xml version="1.0" encoding="utf-8"?>
<!-- Generator: Adobe Illustrator 27.3.1, SVG Export Plug-In . SVG Version: 6.00 Build 0)  -->
<svg version="1.1" id="Layer_1" xmlns="http://www.w3.org/2000/svg" xmlns:xlink="http://www.w3.org/1999/xlink" x="0px" y="0px"
	 viewBox="0 0 500 500" style="enable-background:new 0 0 500 500;" xml:space="preserve">
<style type="text/css">
	.st0{fill:#808285;}
	.st1{fill:#BCBEC0;}
	.st2{fill:#A7A9AC;}
	.st3{fill:#D1D3D4;}
</style>
<g>
	<g>
		<path class="st0" d="M172.83,336.23c-0.06,0-0.11-0.01-0.17-0.02c-19.91-4.06-38.72-13.13-54.38-26.23
			c-0.18-0.15-0.29-0.37-0.3-0.61c-0.01-0.24,0.08-0.47,0.24-0.63c8.15-8.23,17.35-15.13,27.33-20.52c0.22-0.12,0.48-0.14,0.72-0.04
			c0.23,0.09,0.41,0.29,0.49,0.52c1.99,6.15,4.23,11.97,6.68,17.29c5.7,12.37,12.41,22.05,19.95,28.75
			c0.29,0.25,0.36,0.67,0.19,1.01C173.44,336.05,173.15,336.23,172.83,336.23z M120.07,309.28c14.52,11.95,31.72,20.42,49.95,24.63
			c-6.81-6.72-12.89-15.85-18.12-27.2c-2.35-5.1-4.51-10.65-6.44-16.51C136.24,295.28,127.7,301.69,120.07,309.28z M175.31,327.7
			c-0.22,0-0.44-0.09-0.61-0.26c-5.76-5.95-11.01-14.05-15.62-24.05c-2.5-5.42-4.77-11.38-6.77-17.71
			c-0.13-0.41,0.07-0.85,0.46-1.02c6.57-2.95,13.44-5.26,20.41-6.86c0.45-0.11,0.91,0.18,1.01,0.63c0.1,0.46-0.18,0.91-0.63,1.01
			c-6.62,1.52-13.15,3.68-19.41,6.45c1.92,5.99,4.09,11.64,6.46,16.79c4.53,9.83,9.67,17.77,15.3,23.58
			c0.32,0.34,0.32,0.87-0.02,1.19C175.74,327.62,175.52,327.7,175.31,327.7z M112.93,304.93c-0.21,0-0.42-0.08-0.58-0.23
			c-0.76-0.73-1.52-1.46-2.26-2.21c-22.32-22.32-35.16-51.96-36.16-83.46c-0.01-0.23,0.08-0.45,0.24-0.61
			c0.16-0.17,0.38-0.26,0.61-0.26h60.47c0.46,0,0.84,0.37,0.84,0.83c0.31,21.85,3.2,43.3,8.38,62.03c0.11,0.38-0.07,0.79-0.42,0.97
			c-11.19,5.85-21.45,13.48-30.51,22.68C113.37,304.84,113.15,304.93,112.93,304.93z M75.64,219.85
			c1.19,30.75,13.83,59.64,35.63,81.45c0.54,0.54,1.08,1.07,1.64,1.6c8.87-8.9,18.87-16.32,29.74-22.08
			c-5.04-18.48-7.88-39.53-8.25-60.97H75.64z M150.89,278.62c-0.13,0-0.25-0.03-0.37-0.08c-0.22-0.11-0.39-0.3-0.45-0.54
			c-4.78-17.82-7.46-38.22-7.76-58.98c0-0.23,0.08-0.44,0.24-0.61c0.16-0.16,0.38-0.25,0.6-0.25h50.41c0.47,0,0.84,0.38,0.84,0.84
			v28.99c0,0.47-0.38,0.84-0.84,0.84s-0.84-0.38-0.84-0.84v-28.14h-48.71c0.35,19.96,2.92,39.54,7.44,56.76
			c7.02-3.01,14.33-5.34,21.74-6.92c0.45-0.1,0.9,0.19,1,0.65c0.1,0.46-0.19,0.91-0.65,1c-7.62,1.62-15.13,4.05-22.32,7.2
			C151.12,278.59,151.01,278.62,150.89,278.62z M201.49,242.67c-0.47,0-0.84-0.38-0.84-0.84V219c0-0.47,0.38-0.84,0.84-0.84h50.41
			c0.23,0,0.44,0.09,0.6,0.25c0.16,0.16,0.25,0.38,0.24,0.61c-0.08,5.52-0.33,11.07-0.74,16.49c-0.03,0.47-0.45,0.81-0.91,0.78
			c-0.47-0.03-0.81-0.44-0.78-0.91c0.39-5.11,0.63-10.33,0.72-15.53h-48.71v21.98C202.34,242.29,201.96,242.67,201.49,242.67z
			 M259.25,234.31c-0.02,0-0.04,0-0.06,0c-0.47-0.03-0.82-0.43-0.79-0.9c0.32-4.75,0.51-9.6,0.58-14.42
			c0.01-0.46,0.38-0.83,0.84-0.83h39.98c0.47,0,0.84,0.38,0.84,0.84s-0.38,0.84-0.84,0.84h-39.15c-0.08,4.57-0.27,9.17-0.57,13.67
			C260.06,233.97,259.69,234.31,259.25,234.31z M320.3,211.93h-60.47c-0.46,0-0.84-0.37-0.84-0.83c-0.29-20.72-2.93-41.2-7.63-59.23
			c-0.1-0.38,0.08-0.77,0.42-0.96c11.57-6.15,22.12-14.21,31.35-23.94c0.16-0.16,0.37-0.26,0.6-0.26c0.2,0.01,0.44,0.08,0.61,0.24
			l0.64,0.64c22.32,22.32,35.16,51.96,36.16,83.46c0.01,0.23-0.08,0.45-0.24,0.61C320.74,211.83,320.52,211.93,320.3,211.93z
			 M260.66,210.24h58.76c-1.19-30.74-13.83-59.64-35.63-81.45l-0.03-0.03c-9.06,9.42-19.35,17.26-30.6,23.33
			C257.72,169.84,260.31,189.91,260.66,210.24z M251.91,211.93h-50.41c-0.47,0-0.84-0.38-0.84-0.84v-45.82
			c0-0.46,0.36-0.83,0.82-0.84c14.93-0.51,29.43-3.87,43.12-9.99c0.23-0.1,0.49-0.1,0.71,0.01c0.22,0.11,0.39,0.31,0.45,0.55
			c4.37,17.32,6.72,36.19,7.01,56.08c0,0.23-0.08,0.44-0.24,0.61C252.35,211.83,252.13,211.93,251.91,211.93z M202.34,210.24h48.71
			c-0.33-19.07-2.58-37.18-6.7-53.86c-13.36,5.84-27.49,9.1-42.01,9.7V210.24z M193.57,211.93h-50.41c-0.23,0-0.44-0.09-0.6-0.25
			c-0.16-0.16-0.25-0.38-0.24-0.61c0.28-19.88,2.64-38.75,7.01-56.08c0.06-0.24,0.23-0.44,0.45-0.55c0.22-0.11,0.49-0.11,0.71-0.01
			c13.68,6.12,28.19,9.48,43.12,9.99c0.45,0.01,0.82,0.39,0.82,0.84v45.82C194.42,211.55,194.04,211.93,193.57,211.93z
			 M144.02,210.24h48.71v-44.16c-14.52-0.59-28.65-3.85-42.01-9.7C146.6,173.06,144.35,191.17,144.02,210.24z M135.24,211.93H74.77
			c-0.23,0-0.45-0.09-0.61-0.26c-0.16-0.17-0.25-0.39-0.24-0.61c1-31.5,13.84-61.14,36.16-83.46l0.65-0.64
			c0.16-0.16,0.42-0.23,0.61-0.24c0.23,0,0.44,0.1,0.6,0.26c9.23,9.73,19.78,17.78,31.35,23.94c0.34,0.18,0.52,0.58,0.42,0.96
			c-4.7,18.01-7.34,38.49-7.63,59.23C136.08,211.55,135.7,211.93,135.24,211.93z M75.64,210.24h58.76
			c0.35-20.33,2.94-40.41,7.5-58.15c-11.25-6.06-21.54-13.91-30.6-23.33l-0.03,0.03C89.47,150.6,76.84,179.49,75.64,210.24z
			 M201.49,158.18c-0.22,0-0.43-0.08-0.59-0.24c-0.17-0.16-0.26-0.38-0.26-0.61V92.55c0-0.25,0.11-0.49,0.3-0.65
			c0.19-0.16,0.44-0.23,0.69-0.19c12.76,2.17,24.96,14.59,34.34,34.98c2.87,6.23,5.44,13.14,7.64,20.55
			c0.12,0.4-0.08,0.83-0.46,1.01c-13.19,6.07-27.2,9.41-41.64,9.93C201.51,158.18,201.5,158.18,201.49,158.18z M202.34,93.57v62.88
			c13.66-0.61,26.93-3.78,39.45-9.44c-2.13-7.06-4.6-13.66-7.34-19.62C225.55,108.07,214.18,96.11,202.34,93.57z M193.57,158.18
			c-0.01,0-0.02,0-0.03,0c-14.44-0.52-28.45-3.86-41.64-9.93c-0.38-0.18-0.58-0.6-0.46-1.01c2.2-7.4,4.77-14.31,7.64-20.55l0,0
			c9.39-20.39,21.58-32.81,34.34-34.98c0.25-0.04,0.5,0.03,0.69,0.19c0.19,0.16,0.3,0.4,0.3,0.65v64.78c0,0.23-0.09,0.45-0.26,0.61
			C194,158.09,193.79,158.18,193.57,158.18z M153.28,147.02c12.52,5.66,25.79,8.83,39.45,9.44V93.57
			c-11.84,2.54-23.21,14.5-32.11,33.83l0,0C157.87,133.37,155.4,139.96,153.28,147.02z M249.97,144.71c-0.11,0-0.22-0.02-0.32-0.06
			c-0.24-0.1-0.42-0.29-0.49-0.54c-2.19-7.18-4.73-13.92-7.54-20.02c-5.69-12.37-12.41-22.05-19.95-28.76
			c-0.29-0.25-0.36-0.67-0.19-1.01s0.55-0.53,0.92-0.45c20.68,4.22,40.08,13.8,56.11,27.69c0.17,0.15,0.28,0.37,0.29,0.6
			c0.01,0.23-0.07,0.46-0.23,0.62c-8.34,8.77-17.82,16.11-28.19,21.82C250.25,144.67,250.11,144.71,249.97,144.71z M225.04,96.17
			c6.81,6.72,12.89,15.86,18.12,27.21c2.71,5.89,5.17,12.36,7.32,19.24c9.61-5.41,18.43-12.25,26.26-20.36
			C261.83,109.53,244.03,100.56,225.04,96.17z M145.09,144.71c-0.14,0-0.28-0.04-0.41-0.1c-10.37-5.71-19.85-13.05-28.19-21.82
			c-0.16-0.17-0.24-0.39-0.23-0.62c0.01-0.23,0.12-0.45,0.29-0.6c16.03-13.89,35.43-23.47,56.11-27.69
			c0.38-0.08,0.75,0.11,0.92,0.45s0.09,0.75-0.19,1.01c-7.54,6.71-14.25,16.38-19.95,28.76c-2.81,6.11-5.35,12.85-7.54,20.02
			c-0.07,0.24-0.25,0.44-0.49,0.54C145.31,144.69,145.2,144.71,145.09,144.71z M118.34,122.26c7.82,8.11,16.65,14.95,26.26,20.36
			c2.14-6.87,4.6-13.34,7.32-19.24c5.23-11.35,11.31-20.49,18.12-27.21C151.03,100.56,133.23,109.53,118.34,122.26z"/>
	</g>
	<g>
		<path class="st0" d="M229.58,408.29c-1.37,0-2.67-0.54-3.64-1.51c-0.97-0.97-1.51-2.27-1.51-3.64l-0.02-48.27
			c0-0.82,0.66-1.48,1.48-1.48c0.82,0,1.48,0.66,1.48,1.48l0.02,48.27c0,0.58,0.23,1.14,0.64,1.55c0.42,0.42,0.96,0.64,1.55,0.64
			c0,0,0,0,0,0l36.94-0.01c0.59,0,1.14-0.23,1.55-0.64c0.42-0.42,0.64-0.97,0.64-1.55l0-7.45c0-2.1-0.82-4.08-2.32-5.57
			c-1.49-1.49-3.47-2.31-5.57-2.31c0,0,0,0,0,0h-0.42c0,0,0,0,0,0c-2.84,0-5.15-2.31-5.15-5.15l-0.01-27.78
			c0-0.82,0.66-1.48,1.48-1.48c0.82,0,1.48,0.66,1.48,1.48l0.01,27.78c0,1.21,0.99,2.2,2.19,2.2c0,0,0,0,0,0h0.42c0,0,0,0,0,0
			c2.89,0,5.61,1.13,7.66,3.18c2.05,2.05,3.18,4.77,3.18,7.66l0,7.45c0,1.38-0.54,2.67-1.51,3.64c-0.97,0.97-2.27,1.51-3.64,1.51
			L229.58,408.29C229.59,408.29,229.59,408.29,229.58,408.29z M371.34,380.87c-2.38,0-4.73-0.47-6.98-1.43l-108.53-38.62
			l-37.09,0.01c0,0,0,0,0,0c-7.24,0-13.24-5.32-14.23-12.35l-8.1,0c0,0-0.01,0-0.01,0c-2.88,0-5.6-1.13-7.65-3.18
			c-2.05-2.05-3.18-4.77-3.19-7.66l-0.01-46.81c0-2.89,1.13-5.6,3.18-7.66c2.05-2.05,4.77-3.19,7.66-3.19l8.1,0
			c0.98-7.03,6.97-12.36,14.22-12.36l37.09-0.01l108.5-38.69c5.97-2.54,12.73-1.66,18.55,2.4c5.56,3.89,8.63,9.77,8.64,16.56
			l0.05,132.57c0,6.79-3.06,12.67-8.63,16.57C379.28,379.58,375.28,380.87,371.34,380.87z M256.1,337.87c0.17,0,0.34,0.03,0.5,0.09
			l108.81,38.72c0.03,0.01,0.06,0.02,0.09,0.03c5.09,2.18,10.68,1.44,15.73-2.1c4.75-3.32,7.36-8.35,7.36-14.14l-0.05-132.57
			c0-5.8-2.62-10.82-7.37-14.14c-5.06-3.53-10.65-4.27-15.74-2.09c-0.03,0.01-0.06,0.02-0.09,0.03L256.56,250.5
			c-0.16,0.06-0.33,0.09-0.5,0.09l-37.34,0.01c-6.14,0-11.14,4.81-11.4,10.94c-0.03,0.79-0.68,1.42-1.48,1.42l-9.45,0
			c-2.1,0-4.07,0.82-5.57,2.32c-1.49,1.5-2.32,3.47-2.32,5.57l0.01,46.81c0,2.1,0.83,4.07,2.32,5.57c1.49,1.49,3.47,2.31,5.56,2.31
			c0,0,0,0,0.01,0l9.45,0c0.79,0,1.44,0.62,1.48,1.42c0.26,6.13,5.27,10.93,11.41,10.93c0,0,0,0,0,0L256.1,337.87L256.1,337.87z
			 M256.06,249.11L256.06,249.11L256.06,249.11z M406.1,318.61c-0.68,0-1.29-0.47-1.44-1.17c-0.17-0.8,0.34-1.58,1.13-1.76
			c10.04-2.17,17.33-11.21,17.33-21.5c0-10.3-7.3-19.33-17.35-21.49c-0.8-0.17-1.31-0.96-1.14-1.76c0.17-0.8,0.96-1.31,1.76-1.14
			c11.4,2.45,19.68,12.7,19.68,24.38c0,11.68-8.27,21.93-19.66,24.39C406.31,318.59,406.2,318.61,406.1,318.61z M218.5,311.47
			c-0.82,0-1.48-0.66-1.48-1.48c0-0.82,0.66-1.48,1.48-1.48l24.01-0.01h0c0.82,0,1.48,0.66,1.48,1.48c0,0.82-0.66,1.48-1.48,1.48
			L218.5,311.47L218.5,311.47z M218.48,278.86c-0.82,0-1.48-0.66-1.48-1.48c0-0.82,0.66-1.48,1.48-1.48l24.01-0.01h0
			c0.82,0,1.48,0.66,1.48,1.48c0,0.82-0.66,1.48-1.48,1.48L218.48,278.86L218.48,278.86z"/>
	</g>
</g>
</svg>
