<?xml version="1.0" encoding="utf-8"?>
<!-- Generator: Adobe Illustrator 27.3.1, SVG Export Plug-In . SVG Version: 6.00 Build 0)  -->
<svg version="1.1" id="Layer_1" xmlns="http://www.w3.org/2000/svg" xmlns:xlink="http://www.w3.org/1999/xlink" x="0px" y="0px"
	 viewBox="0 0 500 500" style="enable-background:new 0 0 500 500;" xml:space="preserve">
<style type="text/css">
	.st0{fill:#808285;}
	.st1{fill:#BCBEC0;}
	.st2{fill:#A7A9AC;}
	.st3{fill:#D1D3D4;}
</style>
<g>
	<g>
		<path class="st0" d="M366.9,286.57h-30.68c-3.41,0-6.27-2.66-6.51-6.06l-3.23-45.08c-0.02-0.28,0.06-0.55,0.23-0.77l2.03-2.67
			c0.24-0.28,0.65-0.76,0.89-1.21c-1.28,0.19-3.02,0.37-5.07,0.37c-1.69,0-3.88-0.1-5.58-0.51c0.16,0.38,0.48,0.81,0.89,1.36
			l2.03,2.67c0.17,0.22,0.25,0.49,0.23,0.77l-3.23,45.08c-0.24,3.4-3.1,6.06-6.51,6.06h-4.72c-4.42,0-8.08-3.18-8.7-7.56
			c-1.12-7.94-2.35-16.36-4.01-24.41c-1.44-6.99-3.04-12.48-5.01-17.28c-0.94-2.28-0.91-4.58,0.07-6.85
			c0.98-2.26,2.65-3.85,4.96-4.72l15.18-5.71c1.92-0.77,3.75-0.9,6.09-0.43l6.13,1.41c1.36,0.34,2.45,0.34,3.79,0l6.12-1.4
			c2.35-0.47,4.16-0.35,6.08,0.41c0.01,0,0.03,0.01,0.04,0.01l16.91,6.36c6.75,2.57,11.32,8.07,12.54,15.11l4.96,27.84
			c0.71,3.93,0.89,7.63,0.55,11.29C373.09,284.02,370.29,286.57,366.9,286.57z M328.77,235.7l3.2,44.65
			c0.16,2.21,2.02,3.95,4.25,3.95h30.68c2.21,0,4.03-1.66,4.24-3.86c0.32-3.46,0.14-6.95-0.53-10.68l-4.96-27.84
			c-1.08-6.23-5.13-11.1-11.11-13.38l-16.85-6.33c-0.03-0.01-0.06-0.02-0.08-0.03c-1.52-0.61-2.92-0.7-4.82-0.32l-6.07,1.39
			c-1.69,0.42-3.14,0.42-4.85,0l-6.08-1.39c-1.87-0.37-3.27-0.28-4.79,0.33l-15.2,5.72c-1.71,0.64-2.95,1.82-3.68,3.5
			c-0.73,1.68-0.75,3.39-0.05,5.08c2.03,4.94,3.66,10.56,5.14,17.68c1.68,8.11,2.91,16.58,4.04,24.55c0.46,3.25,3.17,5.61,6.45,5.61
			h4.72c2.22,0,4.09-1.74,4.24-3.95l3.2-44.65l-1.77-2.33c-0.83-1.1-1.85-2.46-1.35-4.13c0.14-0.65,0.8-1.12,1.61-1.12
			c0.14,0,0.29,0.03,0.42,0.08c1.08,0.43,3.2,0.68,5.81,0.68c2.45,0,4.42-0.27,5.64-0.49c0.79-0.12,1.45,0.23,1.75,0.92
			c0.03,0.06,0.05,0.12,0.06,0.18c0.42,1.69-0.83,3.15-1.51,3.94L328.77,235.7z M191.63,286.57h-4.02c-3.41,0-6.27-2.66-6.51-6.06
			l-3.23-45.08c-0.02-0.28,0.06-0.55,0.23-0.77l2.04-2.67c0.24-0.28,0.65-0.76,0.89-1.21c-1.28,0.19-3.02,0.37-5.07,0.37
			c-1.4,0-3.76-0.07-5.58-0.51c0.16,0.38,0.48,0.81,0.89,1.36l2.03,2.67c0.17,0.22,0.25,0.49,0.23,0.77l-3.23,45.08
			c-0.24,3.4-3.1,6.06-6.51,6.06H133.1c-3.4,0-6.19-2.55-6.5-5.93c-0.33-3.66-0.15-7.35,0.56-11.29l4.96-27.84
			c1.22-7.03,5.79-12.53,12.54-15.1l16.91-6.36c1.92-0.77,3.75-0.9,6.09-0.43l6.13,1.41c1.36,0.34,2.45,0.34,3.79,0l6.12-1.4
			c2.35-0.47,4.16-0.35,6.08,0.41c0.01,0,0.03,0.01,0.04,0.01l14.02,5.27c4.5,1.69,6.81,6.74,5.16,11.25
			c-2.29,6.25-4.29,13.96-6.1,23.58c-1.16,6.15-2.01,12.33-2.52,18.37C200,283.11,196.24,286.57,191.63,286.57z M180.17,235.7
			l3.2,44.65c0.16,2.22,2.02,3.95,4.24,3.95h4.02c3.41,0,6.21-2.57,6.49-5.97c0.52-6.12,1.37-12.38,2.55-18.6
			c1.84-9.74,3.87-17.57,6.2-23.94c1.23-3.35-0.49-7.09-3.82-8.34l-13.97-5.25c-0.03-0.01-0.06-0.02-0.08-0.03
			c-1.52-0.61-2.92-0.7-4.82-0.32l-6.07,1.39c-1.69,0.42-3.14,0.42-4.85,0l-6.08-1.39c-1.87-0.37-3.27-0.28-4.79,0.33l-16.93,6.37
			c-5.98,2.27-10.03,7.15-11.1,13.37l-4.96,27.85c-0.67,3.73-0.84,7.23-0.53,10.68c0.2,2.2,2.02,3.87,4.24,3.87h30.69
			c2.22,0,4.09-1.74,4.24-3.95l3.2-44.65l-1.77-2.33c-0.83-1.1-1.85-2.46-1.35-4.13c0.14-0.65,0.8-1.12,1.61-1.12
			c0.14,0,0.29,0.03,0.42,0.08c1.08,0.43,3.2,0.68,5.81,0.68c2.45,0,4.42-0.27,5.64-0.49c0.79-0.12,1.45,0.23,1.75,0.92
			c0.03,0.06,0.05,0.12,0.06,0.18c0.42,1.69-0.83,3.15-1.51,3.94L180.17,235.7z M324.31,215.76c-13.18,0-20.46-16.76-20.46-28.34
			c0-11.28,9.18-20.46,20.46-20.46c11.28,0,20.46,9.18,20.46,20.46C344.76,199.01,337.48,215.76,324.31,215.76z M324.31,169.23
			c-10.03,0-18.19,8.16-18.19,18.19c0,10.89,6.92,26.07,18.19,26.07c11.27,0,18.19-15.18,18.19-26.07
			C342.49,177.39,334.33,169.23,324.31,169.23z M175.7,215.76c-13.17,0-20.46-16.76-20.46-28.34c0-11.28,9.18-20.46,20.46-20.46
			c11.28,0,20.46,9.18,20.46,20.46C196.16,199.01,188.87,215.76,175.7,215.76z M175.7,169.23c-10.03,0-18.19,8.16-18.19,18.19
			c0,10.89,6.92,26.07,18.19,26.07c11.27,0,18.19-15.18,18.19-26.07C193.89,177.39,185.73,169.23,175.7,169.23z"/>
	</g>
	<g>
		<path class="st0" d="M271.87,410.33c-1.78,0-3.55-0.52-5.13-1.55c-2.72-1.78-4.29-4.66-4.29-7.91c0-5.26-0.09-10.78-0.19-16.63
			c-0.34-20.95-0.73-44.7,3.2-63.53c0.03-0.16,0.09-0.31,0.18-0.44c2.09-3.29,2.8-7.3,2.11-11.92c-0.01-0.04-0.01-0.08-0.01-0.12
			c-0.04-0.69,0.26-1.33,0.79-1.74c-0.21-0.12-0.38-0.29-0.51-0.52c-0.35-0.64-0.11-1.45,0.53-1.8c1.92-1.05,3.95-2.24,5.82-3.86
			c2.25-1.96,4.42-4.71,6.52-7.36c0.4-0.51,1.13-0.67,1.7-0.36c0.57,0.31,0.84,0.97,0.63,1.58l-0.66,1.86
			c1.62-1.4,3.16-2.81,4.45-4.18c2.12-2.24,3.71-4.51,5.22-6.71c-1.45-10.25-2.94-20.77-4.64-29.01c-1.75-8.45-3.7-14.54-6.34-19.73
			c-2.69-5.3-6.07-9.57-10.31-13.06c-4.61-3.79-9.92-6.43-14.95-7.44c-4.77-0.96-10.14-0.56-14.74,1.08
			c-4.13,1.47-7.05,3.73-10.14,6.12c-0.11,0.08-0.23,0.15-0.36,0.2c-2.16,0.79-4.2,1.53-6.5,3.24c-2.05,1.52-4.73,4.1-7.34,10.55
			c-2.71,6.69-5.17,17.02-6.58,24.47c-1.14,6.06-1.97,12.15-2.45,18.1c-0.27,3.32-0.2,3.44,0.46,4.55c0.44,0.74,2.08,3.37,4.47,6.01
			c1.26,1.39,2.71,2.75,4.22,4.09l-0.18-0.92c-0.12-0.63,0.22-1.25,0.81-1.48c0.59-0.23,1.27-0.01,1.61,0.52
			c4.64,7.35,5.2,7.9,12.01,11.89c0.63,0.37,0.84,1.18,0.47,1.81c-0.08,0.14-0.18,0.25-0.3,0.35c0.53,0.41,0.84,1.06,0.81,1.75
			c0,0.04-0.01,0.09-0.01,0.13c-0.69,4.62,0.02,8.63,2.11,11.92c0.09,0.13,0.15,0.28,0.18,0.44c3.93,18.83,3.54,42.58,3.2,63.53
			c-0.1,5.85-0.19,11.37-0.19,16.63c0,3.25-1.56,6.13-4.29,7.91c-2.72,1.78-5.99,2.04-8.97,0.73c-9.96-4.4-39.69-18.05-42.19-20.8
			c0,0,0,0,0,0c-3.05-3.37-4.43-7.54-3.98-12.06c0.54-5.48,1.07-11.64,1.58-17.6c1.06-12.39,1.98-23.08,2.82-25.98
			c1.84-6.35,2.99-8.65,5.11-10.23c1.91-1.42,4.42-2.04,9.42-3.26l6.9-1.72c1.73-0.53,3.4-1.01,4.99-1.47
			c1.41-0.4,2.74-0.79,4.03-1.18c5.91-1.82,10.4-3.81,15.86-8.64c0.15-0.14,0.32-0.25,0.5-0.33c-4.9-2.88-6.69-4.19-9.19-7.68
			c-0.11,0.16-0.25,0.3-0.43,0.4c-0.49,0.28-1.1,0.23-1.53-0.14l-0.09-0.08c-2.51-2.15-5.11-4.38-7.24-6.74
			c-2.56-2.82-4.31-5.64-4.79-6.43c-1.08-1.81-1.12-2.59-0.83-6.13c0.49-6.04,1.33-12.22,2.49-18.37
			c1.43-7.57,3.95-18.11,6.73-24.97c2.86-7.06,5.89-9.95,8.22-11.68c2.54-1.88,4.8-2.73,6.98-3.53c3.07-2.37,6.25-4.81,10.71-6.4
			c5.12-1.82,10.85-2.24,16.15-1.18c5.45,1.09,11.17,3.93,16.11,7.99c4.54,3.73,8.13,8.28,10.99,13.91
			c2.75,5.42,4.77,11.7,6.57,20.4c1.75,8.46,3.27,19.23,4.74,29.64c0.05,0.33-0.03,0.7-0.21,0.98c-1.66,2.42-3.37,4.92-5.77,7.46
			c-2.38,2.52-5.45,5.07-8.41,7.54c-0.46,0.38-1.12,0.41-1.6,0.07c-0.38-0.27-0.59-0.71-0.57-1.16c-0.73,0.78-1.47,1.52-2.24,2.18
			c-1.84,1.61-3.79,2.81-5.65,3.84c0.26,0.09,0.51,0.23,0.72,0.42c5.46,4.83,9.95,6.82,15.86,8.64c1.29,0.4,2.63,0.78,4.04,1.18
			c1.58,0.45,3.26,0.93,5.05,1.48l6.83,1.7c5,1.22,7.51,1.83,9.42,3.26c2.13,1.59,3.27,3.88,5.11,10.23
			c0.84,2.9,1.76,13.6,2.82,25.99c0.51,5.95,1.04,12.11,1.58,17.59c0.44,4.52-0.93,8.69-3.99,12.06c0,0,0,0,0,0
			c-2.49,2.75-32.22,16.4-42.19,20.8C274.46,410.06,273.16,410.33,271.87,410.33z M184.07,386.93c1.66,1.78,24.09,12.57,41.29,20.16
			c2.17,0.96,4.46,0.77,6.45-0.52c1.99-1.3,3.08-3.32,3.08-5.69c0-5.28,0.09-10.81,0.19-16.67c0.34-20.73,0.73-44.21-3.09-62.72
			c-2.1-3.41-2.95-7.42-2.55-11.95c-5.32,4.45-9.85,6.41-15.7,8.21c-1.3,0.4-2.65,0.79-4.08,1.2c-1.57,0.45-3.23,0.93-5.01,1.47
			l-6.98,1.74c-4.65,1.14-6.99,1.71-8.46,2.81c-1.55,1.16-2.52,3.23-4.15,8.85c-0.77,2.65-1.72,13.73-2.72,25.47
			c-0.51,5.97-1.04,12.14-1.58,17.64C180.38,380.72,181.5,384.09,184.07,386.93L184.07,386.93z M268.01,321.48
			c-3.82,18.51-3.43,41.99-3.09,62.72c0.1,5.86,0.19,11.39,0.19,16.67c0,2.37,1.09,4.39,3.08,5.69c1.99,1.3,4.28,1.48,6.45,0.52
			c17.2-7.59,39.63-18.38,41.29-20.16c2.57-2.84,3.69-6.21,3.31-10.02c-0.54-5.49-1.07-11.66-1.58-17.62
			c-1.01-11.74-1.96-22.83-2.73-25.48c-1.63-5.62-2.6-7.69-4.15-8.85c-1.47-1.1-3.81-1.67-8.46-2.81l-6.91-1.72
			c-1.85-0.56-3.5-1.04-5.07-1.49c-1.43-0.41-2.78-0.8-4.08-1.2c-5.84-1.79-10.38-3.76-15.7-8.21
			C270.97,314.06,270.11,318.07,268.01,321.48z M316.91,387.82L316.91,387.82L316.91,387.82z M269.42,308.55
			C269.42,308.55,269.42,308.55,269.42,308.55C269.42,308.55,269.42,308.55,269.42,308.55z M230.59,308.55
			C230.58,308.55,230.58,308.55,230.59,308.55C230.58,308.55,230.58,308.55,230.59,308.55z M250,330.05c-3.83,0-7.65-1.07-10.85-3.2
			c-0.61-0.41-0.77-1.23-0.37-1.84c0.41-0.61,1.23-0.77,1.84-0.37c5.53,3.69,13.24,3.69,18.75,0c0.61-0.41,1.43-0.25,1.84,0.36
			c0.41,0.61,0.25,1.43-0.36,1.84C257.66,328.98,253.83,330.05,250,330.05z M249.97,304.73c-0.03,0-0.05,0-0.08,0
			c-13.21-0.79-20.18-10.44-22.5-13.68c-5.44-6.52-4.3-29.88-3.29-37.22c0.05-0.37,0.26-0.71,0.57-0.92
			c0.31-0.21,0.7-0.28,1.07-0.18c0.81,0.21,1.63,0.42,2.44,0.63c0.33-2.32,0.8-4.96,1.92-7.5c1.29-2.92,3.43-5.64,5.5-8.28
			c0.4-0.51,1.12-0.66,1.69-0.35c0.57,0.31,0.83,0.99,0.61,1.6c-1.19,3.35-2.42,6.81-2.97,9.34c-0.41,1.89-0.44,3.3-0.4,4.53
			l5.31,0.07c0.25-2.49,0.53-5.12,0.97-7.48c0.49-2.66,1.17-4.95,1.83-7.16c0.2-0.66,0.87-1.08,1.54-0.94
			c0.67,0.14,1.13,0.76,1.05,1.44c-0.03,0.24-0.06,0.48-0.09,0.72c0.12-0.68,0.24-1.34,0.35-2c0.12-0.68,0.74-1.15,1.43-1.08
			c0.69,0.06,1.21,0.64,1.2,1.33l0,0.21c-0.03,3.68-0.07,7.49,0.08,10.09c0.13,2.36,0.4,3.73,0.73,5.27l0.19,0.27l7.8-0.58
			c-0.66-1.15-1.36-2.43-1.83-3.59c-0.69-1.7-0.87-3.03-1.05-4.32c-0.08-0.63,0.29-1.23,0.88-1.43c0.6-0.21,1.26,0.04,1.58,0.59
			c1.11,1.93,2.16,3.74,3.65,5.09c0.45,0.41,0.97,0.8,1.58,1.19c-0.65-1.69-0.99-3.72-1.32-5.69c-0.11-0.63,0.26-1.25,0.86-1.47
			c0.6-0.22,1.27,0.03,1.6,0.58c1.38,2.39,2.81,4.86,4.57,6.5c1.73,1.6,3.88,2.53,6.16,3.5c0.45,0.19,0.76,0.62,0.8,1.11
			c1.15,14.12,1.84,31.77-1.42,35.63c-5.88,7.02-12.73,13.6-22.94,14.2C250.03,304.72,250,304.73,249.97,304.73z M226.54,255.66
			c-1.11,9.9-1.09,29,2.91,33.71c0.02,0.03,0.05,0.06,0.07,0.09c2.33,3.25,8.5,11.87,20.46,12.61c9.17-0.57,15.51-6.71,20.99-13.26
			c1.97-2.33,2.3-14.91,0.87-32.91c-2.15-0.93-4.33-1.96-6.18-3.68c-0.36-0.33-0.7-0.69-1.03-1.07c-0.07,0.58-0.34,1.12-0.8,1.53
			c-0.79,0.71-1.95,0.83-2.87,0.29c-0.52-0.31-1-0.62-1.44-0.93c0.31,0.68,0.28,1.44-0.08,2.12c-0.39,0.75-1.13,1.23-1.98,1.29
			l-8.24,0.62c-0.84,0.06-1.65-0.31-2.15-0.99l-0.28-0.38c-0.32,0.7-0.96,1.23-1.77,1.38c-0.01,0-0.02,0-0.02,0c0,0,0,0-0.01,0l0,0
			c-0.66,0.13-1.3-0.01-1.86-0.4c-0.52-0.37-0.86-0.88-0.99-1.5c-0.43,0.75-1.23,1.24-2.15,1.23l-5.7-0.07
			c-1.3-0.02-2.36-1.05-2.41-2.35c-0.06-1.45-0.05-3.11,0.45-5.4c0.04-0.18,0.08-0.36,0.12-0.54c-0.98,2.28-1.39,4.75-1.69,6.89
			c-0.09,0.69-0.47,1.29-1.06,1.69c-0.58,0.39-1.28,0.51-1.96,0.34C227.35,255.87,226.94,255.77,226.54,255.66z M228.15,253.59
			C228.15,253.59,228.15,253.59,228.15,253.59C228.15,253.59,228.15,253.59,228.15,253.59z"/>
	</g>
	<g>
		<path class="st0" d="M250,195.43c-1.94,0-3.6-1.12-4.31-2.93l-13.08-33.09H129.92c-5.16,0-9.36-4.2-9.36-9.36V99.03
			c0-5.16,4.2-9.36,9.36-9.36h240.17c5.16,0,9.36,4.2,9.36,9.36v51.03c0,5.16-4.2,9.36-9.36,9.36H267.39l-13.08,33.09
			C253.6,194.31,251.94,195.43,250,195.43z M129.92,91.15c-4.34,0-7.87,3.53-7.87,7.87v51.03c0,4.34,3.53,7.87,7.87,7.87h103.2
			c0.31,0,0.58,0.19,0.69,0.47l13.27,33.56c0.48,1.23,1.61,1.99,2.93,1.99c1.32,0,2.44-0.76,2.93-1.99l13.27-33.56
			c0.11-0.28,0.39-0.47,0.69-0.47h103.2c4.34,0,7.87-3.53,7.87-7.87V99.03c0-4.34-3.53-7.87-7.87-7.87H129.92z M320.51,142.06
			c-0.46,0-0.92-0.15-1.32-0.44l-9.68-7.06l-9.68,7.06c-0.8,0.58-1.83,0.58-2.63,0c-0.8-0.58-1.12-1.56-0.81-2.5l3.73-11.39
			l-9.71-7.03c-0.8-0.58-1.12-1.56-0.82-2.5c0.31-0.94,1.14-1.55,2.13-1.55c0,0,0,0,0.01,0l11.99,0.02l3.68-11.41
			c0.3-0.94,1.14-1.55,2.13-1.55c0.97,0,1.83,0.62,2.13,1.55l3.68,11.41l11.99-0.02c0,0,0,0,0.01,0c0.99,0,1.82,0.61,2.13,1.54
			c0.31,0.94-0.01,1.92-0.82,2.5l-9.71,7.03l3.73,11.39c0.31,0.94-0.01,1.92-0.81,2.5C321.42,141.91,320.97,142.06,320.51,142.06z
			 M309.51,132.89c0.15,0,0.31,0.05,0.44,0.14l10.12,7.38c0.27,0.2,0.61,0.2,0.88,0c0.27-0.2,0.38-0.52,0.27-0.84l-3.89-11.91
			c-0.1-0.31,0.01-0.64,0.27-0.83l10.15-7.34c0.27-0.2,0.38-0.52,0.27-0.84c-0.1-0.32-0.38-0.52-0.71-0.52c0,0,0,0,0,0l-12.53,0.02
			c0,0,0,0,0,0c-0.32,0-0.61-0.21-0.71-0.52l-3.85-11.92l0,0c-0.1-0.32-0.38-0.52-0.71-0.52s-0.61,0.2-0.71,0.52l-3.85,11.92
			c-0.1,0.31-0.39,0.52-0.71,0.52c0,0,0,0,0,0l-12.53-0.02c0,0,0,0,0,0c-0.34,0-0.61,0.2-0.71,0.52c-0.1,0.32,0,0.64,0.27,0.84
			l10.15,7.34c0.26,0.19,0.37,0.53,0.27,0.83l-3.89,11.91c-0.1,0.32,0,0.64,0.27,0.84c0.27,0.2,0.61,0.2,0.88,0l10.12-7.38
			C309.2,132.94,309.35,132.89,309.51,132.89z M279.67,142.06c-0.46,0-0.92-0.15-1.32-0.44l-9.68-7.06l-9.68,7.06
			c-0.8,0.58-1.83,0.58-2.63,0c-0.8-0.58-1.12-1.56-0.81-2.5l3.73-11.39l-9.71-7.03c-0.25-0.18-0.46-0.4-0.61-0.65
			c-0.15,0.25-0.36,0.47-0.61,0.65l-9.71,7.03l3.73,11.39c0.3,0.92-0.02,1.93-0.81,2.5c-0.8,0.58-1.83,0.58-2.63,0l-9.68-7.06
			l-9.68,7.06c-0.8,0.58-1.83,0.58-2.63,0c-0.8-0.58-1.12-1.56-0.81-2.5l3.73-11.39l-9.71-7.03c-0.8-0.58-1.12-1.56-0.82-2.5
			c0.3-0.92,1.15-1.54,2.13-1.54c0,0,0,0,0.01,0l11.99,0.02l3.68-11.41c0.3-0.93,1.15-1.55,2.13-1.55c0.99,0,1.82,0.61,2.13,1.55
			l3.68,11.41l11.99-0.02c0.82-0.03,1.53,0.41,1.93,1.09c0.4-0.67,1.12-1.09,1.92-1.09c0,0,0,0,0.01,0l11.99,0.02l3.68-11.41
			c0.3-0.94,1.14-1.55,2.13-1.55c0.97,0,1.83,0.62,2.13,1.55l3.68,11.41l11.99-0.02c0,0,0,0,0.01,0c0.97,0,1.83,0.62,2.13,1.55
			c0.3,0.94-0.02,1.92-0.82,2.5l-9.71,7.03l3.73,11.39c0.31,0.94-0.01,1.92-0.81,2.5C280.58,141.91,280.13,142.06,279.67,142.06z
			 M268.67,132.89c0.15,0,0.31,0.05,0.44,0.14l10.12,7.38c0.27,0.2,0.61,0.2,0.88,0c0.27-0.2,0.38-0.52,0.27-0.84l-3.89-11.91
			c-0.1-0.31,0.01-0.64,0.27-0.83l10.15-7.34c0.27-0.2,0.38-0.52,0.27-0.84c-0.1-0.32-0.38-0.52-0.71-0.52c0,0,0,0,0,0l-12.53,0.02
			c0,0,0,0,0,0c-0.32,0-0.61-0.21-0.71-0.52l-3.85-11.92l0,0c-0.1-0.32-0.38-0.52-0.71-0.52c-0.34,0-0.61,0.2-0.71,0.52l-3.85,11.92
			c-0.1,0.31-0.39,0.52-0.71,0.52c0,0,0,0,0,0l-12.53-0.02c0,0,0,0,0,0c-0.34,0-0.61,0.2-0.71,0.52c-0.1,0.32,0,0.64,0.27,0.84
			l10.15,7.34c0.26,0.19,0.37,0.53,0.27,0.83l-3.89,11.91c-0.1,0.32,0,0.64,0.27,0.84c0.27,0.2,0.61,0.2,0.88,0l10.12-7.38
			C268.36,132.94,268.52,132.89,268.67,132.89z M229.23,132.89c0.15,0,0.31,0.05,0.44,0.14l10.12,7.38c0.27,0.2,0.61,0.2,0.88,0
			c0.27-0.2,0.38-0.52,0.27-0.84l-3.89-11.91c-0.1-0.31,0.01-0.64,0.27-0.83l10.15-7.34c0.27-0.2,0.38-0.52,0.27-0.84
			c-0.1-0.32-0.38-0.52-0.71-0.52c0,0,0,0,0,0l-12.53,0.02c0,0,0,0,0,0c-0.32,0-0.61-0.21-0.71-0.52l-3.85-11.92l0,0
			c-0.1-0.32-0.38-0.52-0.71-0.52c-0.34,0-0.61,0.2-0.71,0.52l-3.85,11.92c-0.1,0.31-0.39,0.52-0.71,0.52c0,0,0,0,0,0l-12.53-0.02
			c0,0,0,0,0,0c-0.34,0-0.61,0.2-0.71,0.52c-0.1,0.32,0,0.64,0.27,0.84l10.15,7.34c0.26,0.19,0.37,0.53,0.27,0.83l-3.89,11.91
			c-0.1,0.32,0,0.64,0.27,0.84c0.27,0.2,0.61,0.2,0.88,0l10.12-7.38C228.92,132.94,229.08,132.89,229.23,132.89z M177.29,142.06
			c-0.46,0-0.91-0.14-1.31-0.44c-0.79-0.57-1.11-1.58-0.81-2.5l3.73-11.39l-9.71-7.03c-0.8-0.58-1.12-1.56-0.82-2.5
			c0.3-0.92,1.15-1.55,2.13-1.55c0,0,0,0,0,0l11.99,0.02l3.68-11.41c0.3-0.93,1.15-1.55,2.13-1.55c0.97,0,1.83,0.62,2.13,1.55
			l3.68,11.41l11.99-0.02c0,0,0,0,0.01,0c0.97,0,1.82,0.62,2.13,1.55c0.31,0.94-0.01,1.92-0.82,2.5l-9.71,7.03l3.73,11.39
			c0.3,0.92-0.02,1.93-0.81,2.5c-0.8,0.58-1.83,0.58-2.63,0l-9.68-7.06l-9.68,7.06C178.2,141.91,177.75,142.06,177.29,142.06z
			 M170.49,118.14c-0.34,0-0.61,0.2-0.71,0.52c-0.1,0.32,0,0.64,0.27,0.84l10.15,7.34c0.26,0.19,0.37,0.53,0.27,0.83l-3.89,11.91
			c-0.1,0.32,0,0.64,0.27,0.84c0.27,0.2,0.61,0.2,0.88,0l10.12-7.38c0.26-0.19,0.62-0.19,0.88,0l10.12,7.38
			c0.27,0.2,0.61,0.2,0.88,0c0.27-0.2,0.38-0.52,0.27-0.84l-3.89-11.91c-0.1-0.31,0.01-0.64,0.27-0.83l10.15-7.34
			c0.27-0.2,0.38-0.52,0.27-0.84c-0.1-0.32-0.38-0.52-0.71-0.52c0,0,0,0,0,0l-12.53,0.02c0,0,0,0,0,0c-0.32,0-0.61-0.21-0.71-0.52
			L189,105.73c-0.1-0.32-0.38-0.52-0.71-0.52c-0.34,0-0.61,0.2-0.71,0.52l-3.85,11.92c-0.1,0.31-0.39,0.52-0.71,0.52c0,0,0,0,0,0
			L170.49,118.14C170.49,118.14,170.49,118.14,170.49,118.14z M361.99,142.06c-0.46,0-0.92-0.15-1.32-0.44l-9.68-7.06l-9.68,7.06
			c-0.79,0.57-1.84,0.58-2.63,0c-0.8-0.58-1.12-1.56-0.81-2.5l3.73-11.39l-9.71-7.03c-0.8-0.58-1.12-1.56-0.82-2.5
			c0.31-0.94,1.14-1.54,2.13-1.54c0,0,0,0,0.01,0l11.99,0.02l3.68-11.41c0.3-0.93,1.15-1.55,2.13-1.55c0.97,0,1.83,0.62,2.13,1.55
			l3.68,11.41l11.99-0.02c0,0,0,0,0.01,0c0.97,0,1.83,0.62,2.13,1.55c0.31,0.94-0.01,1.92-0.82,2.5l-9.71,7.03l3.73,11.39
			c0.31,0.94-0.01,1.92-0.81,2.5C362.9,141.91,362.44,142.06,361.99,142.06z M333.19,118.14c-0.34,0-0.61,0.2-0.71,0.52
			c-0.1,0.32,0,0.64,0.27,0.84l10.15,7.34c0.26,0.19,0.37,0.53,0.27,0.83l-3.89,11.91c-0.1,0.32,0,0.64,0.27,0.84
			c0.27,0.2,0.61,0.2,0.88,0l10.12-7.38c0.26-0.19,0.62-0.19,0.88,0l10.12,7.38c0.27,0.2,0.61,0.2,0.88,0
			c0.27-0.2,0.38-0.52,0.27-0.84l-3.89-11.91c-0.1-0.31,0.01-0.64,0.27-0.83l10.15-7.34c0.27-0.2,0.38-0.52,0.27-0.84
			c-0.1-0.32-0.38-0.52-0.71-0.52c0,0,0,0,0,0l-12.53,0.02c0,0,0,0,0,0c-0.32,0-0.61-0.21-0.71-0.52l-3.85-11.92l0,0
			c-0.1-0.32-0.38-0.52-0.71-0.52c-0.34,0-0.61,0.2-0.71,0.52l-3.85,11.92c-0.1,0.31-0.39,0.52-0.71,0.52c0,0,0,0,0,0L333.19,118.14
			C333.19,118.14,333.19,118.14,333.19,118.14z M135.81,142.06c-0.46,0-0.92-0.14-1.31-0.44c-0.8-0.58-1.12-1.56-0.81-2.5
			l3.73-11.39l-9.71-7.03c-0.8-0.58-1.12-1.56-0.82-2.5c0.31-0.94,1.14-1.55,2.13-1.55c0,0,0,0,0.01,0l11.99,0.02l3.68-11.41
			c0.3-0.94,1.14-1.55,2.13-1.55c0.97,0,1.83,0.62,2.13,1.55l3.68,11.41l11.99-0.02c0,0,0,0,0.01,0c0.97,0,1.83,0.62,2.13,1.55
			c0.31,0.94-0.01,1.92-0.82,2.5l-9.71,7.03l3.73,11.39c0.31,0.94-0.01,1.92-0.81,2.5c-0.79,0.57-1.85,0.57-2.63,0l-9.68-7.06
			l-9.68,7.06C136.73,141.91,136.27,142.06,135.81,142.06z M146.81,132.89c0.15,0,0.31,0.05,0.44,0.14l10.12,7.38
			c0.27,0.2,0.61,0.2,0.88,0c0.27-0.2,0.38-0.52,0.27-0.84l-3.89-11.91c-0.1-0.31,0.01-0.64,0.27-0.83l10.15-7.34
			c0.27-0.2,0.38-0.52,0.27-0.84c-0.1-0.32-0.38-0.52-0.71-0.52c0,0,0,0,0,0l-12.53,0.02c0,0,0,0,0,0c-0.32,0-0.61-0.21-0.71-0.52
			l-3.85-11.92c-0.1-0.32-0.38-0.52-0.71-0.52c-0.34,0-0.61,0.2-0.71,0.52l-3.85,11.92c-0.1,0.31-0.39,0.52-0.71,0.52c0,0,0,0,0,0
			l-12.53-0.02c-0.34,0.02-0.61,0.2-0.71,0.52c-0.1,0.32,0,0.64,0.27,0.84l10.15,7.34c0.26,0.19,0.37,0.53,0.27,0.83l-3.89,11.91
			c-0.1,0.32,0,0.64,0.27,0.84c0.27,0.2,0.61,0.2,0.88,0l10.12-7.38C146.5,132.94,146.66,132.89,146.81,132.89z"/>
	</g>
</g>
</svg>
