<?xml version="1.0" encoding="utf-8"?>
<!-- Generator: Adobe Illustrator 27.3.1, SVG Export Plug-In . SVG Version: 6.00 Build 0)  -->
<svg version="1.1" id="Layer_1" xmlns="http://www.w3.org/2000/svg" xmlns:xlink="http://www.w3.org/1999/xlink" x="0px" y="0px"
	 viewBox="0 0 500 500" style="enable-background:new 0 0 500 500;" xml:space="preserve">
<style type="text/css">
	.st0{fill:#808285;}
	.st1{fill:#BCBEC0;}
	.st2{fill:#A7A9AC;}
	.st3{fill:#D1D3D4;}
</style>
<g>
	<g>
		<path class="st0" d="M287.65,410.33l-24.97-53.55h-72.26l-24.97,53.55l-2.39-1.12l46.77-100.3H100.75
			c-6.21,0-11.27-5.06-11.27-11.27V100.94c0-6.21,5.06-11.27,11.27-11.27H280.7v2.64H100.75c-4.76,0-8.63,3.87-8.63,8.63v196.71
			c0,4.76,3.87,8.63,8.63,8.63h251.58c4.76,0,8.63-3.87,8.63-8.63v-39.39h2.64v39.39c0,6.22-5.06,11.27-11.27,11.27H243.27
			l46.77,100.3L287.65,410.33z M191.65,354.14h69.79l-21.09-45.22h-27.62L191.65,354.14z M318.51,285.29H178.03
			c-0.69,0-1.37-0.08-2.02-0.23v0.23h-41.43c-6.7,0-12.15-5.45-12.15-12.16V232.7c0-2.82,0.99-5.57,2.79-7.74l60.1-72.67
			c2.72-3.64,4.82-5.22,7.02-5.16c2.64,0.05,4.68,2.49,6.49,5.13l32.83,45.22l-2.14,1.55l-32.85-45.25
			c-1.87-2.72-3.26-3.99-4.38-4.01c-0.01,0-0.02,0-0.03,0c-1.19,0-2.78,1.36-4.87,4.15l-60.14,72.72c-1.41,1.7-2.18,3.85-2.18,6.06
			v40.44c0,5.25,4.27,9.51,9.51,9.51h37.25c-0.78-0.83-1.4-1.83-1.83-2.97c-1.06-2.82,0.06-6.71,1.7-8.69l70.25-84.94l2.03,1.68
			l-70.25,84.94c-1.27,1.54-1.87,4.44-1.26,6.08c0.7,1.88,2.17,3.23,4.01,3.7c0.49,0.13,1.01,0.19,1.54,0.19h140.49
			c5.25,0,9.51-4.27,9.51-9.51v-13.35h2.64v13.35C330.67,279.84,325.22,285.29,318.51,285.29z M234.05,157.59
			c-12.21,0-22.15-9.94-22.15-22.15c0-12.21,9.94-22.15,22.15-22.15c6.87,0,13.23,3.11,17.47,8.53l-2.08,1.63
			c-3.73-4.77-9.34-7.51-15.39-7.51c-10.76,0-19.51,8.75-19.51,19.51c0,10.76,8.75,19.51,19.51,19.51c2.07,0,4.1-0.32,6.05-0.96
			l0.82,2.51C238.7,157.23,236.39,157.59,234.05,157.59z"/>
	</g>
	<g>
		<path class="st0" d="M334.54,189.34c-0.81,0-1.82-0.25-3.09-0.94c-5.27-2.87-12.38-12-12-21.65c0.22-5.57,3.1-13.38,15.6-18.97
			c1.9-0.85,3.9,0.4,5.13,1.86l4.51,5.3c1.11,1.31,1.16,2.81,1.09,3.98c-0.54,8.14-3.92,11.47-6.64,14.15
			c-1.76,1.74-3.15,3.11-3.43,5.46c-0.11,0.91,0.11,3.31,0.37,4.77l0,0c0.14,0.8,0.41,1.48,0.64,2.09c0.39,0.99,0.97,2.49-0.34,3.41
			C335.95,189.09,335.35,189.34,334.54,189.34z M336.33,150.15c-0.08,0-0.15,0.01-0.22,0.04c-9.04,4.05-13.76,9.65-14.04,16.67
			c-0.33,8.47,6.07,16.75,10.63,19.23c0.77,0.42,1.32,0.57,1.67,0.61c-0.04-0.12-0.09-0.23-0.13-0.34c-0.25-0.65-0.6-1.54-0.79-2.59
			v0c-0.25-1.43-0.54-4.18-0.39-5.53c0.38-3.27,2.23-5.1,4.19-7.03c2.52-2.49,5.38-5.31,5.86-12.45c0.07-1.02-0.07-1.63-0.46-2.09
			l-4.51-5.3C337.54,150.62,336.81,150.15,336.33,150.15z M347.85,153.24c-0.64,0-1.26-0.26-1.71-0.77l-4.38-4.91
			c-0.74-0.83-0.78-2.07-0.09-2.95l24-30.41l31.61-22.46c2.94-2.44,8.51-2.78,11.45,0.52c2.94,3.3,1.97,8.79-0.86,11.5l-25.86,28.76
			l-32.95,20.35C348.68,153.13,348.26,153.24,347.85,153.24z M345.92,148.26l1.99,2.24l32.38-20l25.67-28.55
			c1.99-1.91,2.72-5.73,0.78-7.91c-1.94-2.18-5.82-1.89-7.87-0.19l-31.38,22.3l-23.58,29.88L345.92,148.26z"/>
	</g>
	<g>
		<path class="st0" d="M340.42,251.7c-0.69,0-1.37-0.01-2.07-0.02c-28.28-0.46-54.3-13.3-71.39-35.22
			c-16.01-20.53-21.86-46.54-16.05-71.36c4.59-19.61,18.5-38.22,35.44-47.4c11.86-6.43,24.09-7.66,35.38-3.57
			c0.19,0.05,27.51,8.3,24.8,36.57c-0.07,0.75-0.33,1.4-0.8,2l-7.24,9.17c-0.68,0.86-1.61,1.36-2.71,1.44
			c-0.84,0.06-1.67,0.27-2.46,0.63c-15.42,6.9-21.52,19.19-16.3,32.87c1.76,4.62,4.83,9.14,8.42,12.39
			c1.81,1.64,8.13,6.7,13.35,3.04c0.85-0.59,1.53-1.39,1.98-2.31c0.87-1.77,0.85-3.54-0.08-5.92l-0.08-0.2
			c-0.14-0.36-0.32-0.8-0.4-1.23c-0.13-0.76-0.38-2.47-0.34-3.45l0.01-0.11c0.05-0.41,0.17-0.65,0.35-0.92c0.4-0.6,1-1.18,1.48-1.65
			l0.18-0.17c1.23-1.22,2.24-2.24,3.19-3.43c2.97-3.74,4.52-8.07,4.9-13.64c0.08-1.3,0.72-2.36,1.8-3.03l4.22-2.61
			c1.03-0.64,2.22-0.75,3.35-0.32c3.08,1.17,6.59,1.86,10.43,2.05c23.8,1.19,37.29,24.24,36.57,45.83
			C405.56,224.61,387.78,251.7,340.42,251.7z M308.31,94.42c-6.84,0-13.83,1.88-20.7,5.61c-16.31,8.84-29.7,26.77-34.13,45.67
			c-5.63,24.04,0.05,49.24,15.56,69.14c16.6,21.29,41.88,33.75,69.35,34.2c0.67,0.01,1.35,0.02,2.01,0.02
			c45.49,0,62.55-25.72,63.29-48.03c0.67-20.32-11.88-42-34.06-43.1l0,0c-4.12-0.21-7.9-0.95-11.24-2.22
			c-0.36-0.14-0.7-0.1-1.03,0.1l-4.22,2.61c-0.35,0.21-0.53,0.51-0.55,0.92c-0.4,6.09-2.19,11.03-5.47,15.15
			c-1.03,1.3-2.15,2.43-3.4,3.66l-0.18,0.18c-0.36,0.35-0.79,0.77-1.05,1.12c0.01,0.57,0.16,1.81,0.31,2.68
			c0.03,0.16,0.16,0.48,0.24,0.7l0.09,0.24c0.75,1.92,1.56,4.84-0.01,8.03c-0.64,1.31-1.62,2.46-2.83,3.31
			c-4.6,3.23-10.82,2.02-16.64-3.25c-3.89-3.52-7.21-8.41-9.11-13.4c-5.69-14.91,1.09-28.79,17.69-36.22
			c1.08-0.48,2.2-0.77,3.35-0.85c0.35-0.03,0.61-0.16,0.83-0.44l7.24-9.17c0.15-0.19,0.22-0.36,0.25-0.61
			c2.5-26.07-21.94-33.51-22.99-33.81C316.81,95.16,312.59,94.42,308.31,94.42z M337.83,232.52c-7.6,0-13.78-6.18-13.78-13.78
			c0-7.6,6.18-13.78,13.78-13.78s13.78,6.18,13.78,13.78C351.62,226.34,345.43,232.52,337.83,232.52z M337.83,207.6
			c-6.14,0-11.14,5-11.14,11.14c0,6.14,5,11.14,11.14,11.14s11.14-5,11.14-11.14C348.97,212.59,343.98,207.6,337.83,207.6z
			 M299.74,219.35c-7.6,0-13.78-6.18-13.78-13.78s6.18-13.78,13.78-13.78s13.78,6.18,13.78,13.78S307.34,219.35,299.74,219.35z
			 M299.74,194.42c-6.14,0-11.14,5-11.14,11.14c0,6.14,5,11.14,11.14,11.14s11.14-5,11.14-11.14
			C310.88,199.42,305.88,194.42,299.74,194.42z M374.15,209.02c-7.6,0-13.78-6.18-13.78-13.78c0-7.6,6.18-13.78,13.78-13.78
			s13.78,6.18,13.78,13.78C387.93,202.84,381.75,209.02,374.15,209.02z M374.15,184.1c-6.14,0-11.14,5-11.14,11.14
			c0,6.14,5,11.14,11.14,11.14s11.14-5,11.14-11.14C385.29,189.1,380.29,184.1,374.15,184.1z M281.94,180.9
			c-7.6,0-13.78-6.18-13.78-13.78c0-7.6,6.18-13.78,13.78-13.78s13.78,6.18,13.78,13.78C295.72,174.71,289.54,180.9,281.94,180.9z
			 M281.94,155.97c-6.14,0-11.14,5-11.14,11.14s5,11.14,11.14,11.14s11.14-5,11.14-11.14S288.08,155.97,281.94,155.97z
			 M304.37,139.95c-7.6,0-13.78-6.18-13.78-13.78c0-7.6,6.18-13.78,13.78-13.78s13.78,6.18,13.78,13.78
			C318.15,133.77,311.97,139.95,304.37,139.95z M304.37,115.03c-6.14,0-11.14,5-11.14,11.14s5,11.14,11.14,11.14
			s11.14-5,11.14-11.14S310.51,115.03,304.37,115.03z"/>
	</g>
</g>
</svg>
