<?xml version="1.0" encoding="utf-8"?>
<!-- Generator: Adobe Illustrator 27.3.1, SVG Export Plug-In . SVG Version: 6.00 Build 0)  -->
<svg version="1.1" id="Layer_1" xmlns="http://www.w3.org/2000/svg" xmlns:xlink="http://www.w3.org/1999/xlink" x="0px" y="0px"
	 viewBox="0 0 500 500" style="enable-background:new 0 0 500 500;" xml:space="preserve">
<style type="text/css">
	.st0{fill:#808285;}
	.st1{fill:#BCBEC0;}
	.st2{fill:#A7A9AC;}
	.st3{fill:#D1D3D4;}
</style>
<g>
	<path class="st0" d="M201.63,141.76h42.65l-27.07,47.7c-0.45,0.8-0.17,1.82,0.63,2.27c0.77,0.44,1.83,0.14,2.27-0.63l28.48-50.19
		c0.29-0.51,0.29-1.15-0.01-1.66c-0.3-0.51-0.85-0.83-1.44-0.83h-45.51c-0.92,0-1.67,0.75-1.67,1.67
		C199.96,141.01,200.71,141.76,201.63,141.76z"/>
	<path class="st0" d="M162.33,199.17h52.37c0.54,0,1.04-0.26,1.35-0.7c0.31-0.44,0.4-1,0.22-1.51l-19.48-57.41
		c-0.23-0.68-0.86-1.13-1.58-1.13h-0.1c-0.6,0-1.15,0.32-1.45,0.84l-32.8,57.41c-0.29,0.51-0.29,1.15,0.01,1.66
		C161.19,198.85,161.74,199.17,162.33,199.17z M194.8,144.02l17.58,51.81H165.2L194.8,144.02z"/>
	<path class="st0" d="M286.03,199.17h51.66c0.59,0,1.14-0.31,1.43-0.82c0.3-0.5,0.31-1.14,0.03-1.65l-31.58-57.41
		c-0.29-0.53-0.85-0.86-1.46-0.86h-0.17c-0.71,0-1.34,0.45-1.57,1.12l-19.91,57.41c-0.18,0.51-0.1,1.07,0.22,1.51
		C284.99,198.91,285.49,199.17,286.03,199.17z M306.35,143.99l28.52,51.85h-46.5L306.35,143.99z"/>
	<path class="st0" d="M280.7,191.04c0.43,0.77,1.49,1.08,2.27,0.64c0.8-0.45,1.09-1.47,0.64-2.27l-26.67-47.66h42.6
		c0.92,0,1.67-0.75,1.67-1.67c0-0.92-0.75-1.67-1.67-1.67h-45.45c-0.59,0-1.14,0.32-1.44,0.82c-0.3,0.51-0.3,1.14-0.02,1.66
		L280.7,191.04z"/>
	<path class="st0" d="M252.05,145.45c-0.29-0.52-0.85-0.85-1.45-0.85c-0.6,0-1.16,0.32-1.45,0.84l-29.08,51.24
		c-0.29,0.51-0.29,1.15,0.01,1.66c0.3,0.51,0.85,0.83,1.44,0.83h57.76c0.59,0,1.14-0.32,1.44-0.82c0.3-0.51,0.3-1.14,0.02-1.66
		L252.05,145.45z M224.38,195.83l26.21-46.18l25.85,46.18H224.38z"/>
	<path class="st0" d="M279.73,200.87c-0.87-0.3-1.82,0.16-2.12,1.03l-27.54,79.43l-26.94-79.42c-0.14-0.42-0.44-0.76-0.84-0.96
		c-0.23-0.11-0.48-0.17-0.74-0.17c-0.18,0-0.36,0.03-0.54,0.09c-0.87,0.3-1.34,1.24-1.04,2.11l28.5,84.02
		c0.23,0.67,0.86,1.13,1.57,1.13l0.01,0.38v-0.38c0.71,0,1.34-0.45,1.57-1.12l29.14-84.02C281.06,202.12,280.6,201.17,279.73,200.87
		z"/>
	<path class="st0" d="M338.78,201.17c-0.34-0.29-0.77-0.43-1.21-0.39c-0.44,0.04-0.85,0.24-1.14,0.58L254.21,298l32.95-95.02
		c0.15-0.42,0.12-0.87-0.08-1.27c-0.19-0.4-0.53-0.7-0.95-0.85c-0.42-0.15-0.87-0.12-1.27,0.08c-0.4,0.19-0.7,0.53-0.85,0.95
		l-34.02,98.09l-33.27-98.08c-0.3-0.87-1.24-1.34-2.11-1.04c-0.42,0.14-0.76,0.44-0.96,0.84c-0.2,0.4-0.23,0.85-0.08,1.27l32.23,95
		l-82.19-96.62c-0.29-0.34-0.69-0.55-1.14-0.58c-0.05,0-0.09-0.01-0.14-0.01c-0.39,0-0.77,0.14-1.08,0.4
		c-0.7,0.6-0.78,1.65-0.19,2.35l87.68,103.07c0.63,0.75,1.9,0.75,2.54,0l87.68-103.07c0.29-0.34,0.43-0.77,0.39-1.21
		C339.32,201.86,339.11,201.46,338.78,201.17z"/>
	<path class="st0" d="M418.58,211.41c-6.15-2.54-14.99-0.08-19.25,9.48l-2.4,5.72l-2.41-1.14c-2.08-0.86-4.28-0.88-6.31-0.02
		c-3.66,1.53-6.79,5.64-9.58,12.56l-23.79,55.23c-0.37,0.86,0.03,1.86,0.89,2.23c0.42,0.18,0.88,0.19,1.3,0.02
		c0.42-0.17,0.76-0.49,0.93-0.91l23.78-55.23c3.01-7.47,5.89-9.99,7.78-10.78c1.22-0.51,2.45-0.49,3.75,0.05l2.44,0.89l-28.99,69.16
		c-0.18,0.42-0.18,0.88-0.01,1.3c0.17,0.42,0.5,0.75,0.91,0.92c0.42,0.18,0.88,0.18,1.3,0.01c0.42-0.17,0.75-0.5,0.92-0.92
		l32.58-77.71c3.45-7.69,10.08-9.71,14.86-7.74c3.92,1.62,7.38,6.44,4.23,14.71c-0.01,0.04-0.03,0.07-0.04,0.11l-26.74,88.48
		c-4.63,15.31-11.24,25.36-21.45,32.59l-37.74,26.73c-4.48,3.17-6.73,7.22-6.35,11.41l1.07,11.8c0.13,1.45-0.7,2.87-1.56,3.46
		l-0.56,0.39l-50.05,2.69c-3.5,0.19-4.86-1.04-5.19-4.7c-0.78-8.5,0.53-23.5,1.32-32.47c0.29-3.3,0.51-5.87,0.55-7.11
		c0.55-20.9,14.05-31.94,22.05-36.67c4.5-2.66,9.62-4.06,15.04-5.55c4.14-1.13,8.4-2.3,12.31-4.07l20.84-10.27
		c4.94-2.48,9.31-0.47,11.46,2.62c1.68,2.43,2.39,6.03-0.67,8.87c-0.04,0.04-0.08,0.07-0.11,0.11l-14.13,15.77
		c-1.61,1.79-3.21,2.88-5.37,3.66l-27.01,9.68c-0.43,0.15-0.77,0.46-0.96,0.87c-0.19,0.41-0.22,0.87-0.06,1.3s0.46,0.77,0.87,0.96
		c0.41,0.19,0.87,0.22,1.29,0.06l27.02-9.68c2.66-0.95,4.81-2.41,6.76-4.59l14.01-15.64c3.68-3.54,4.14-9,1.15-13.31
		c-2.23-3.21-6-5.2-9.85-5.2c-1.97,0-3.96,0.5-5.91,1.47l-20.72,10.21c-3.71,1.68-7.63,2.75-11.79,3.89c-5.41,1.48-11,3.01-15.9,5.9
		c-14.64,8.65-23.29,23.05-23.72,39.51c-0.03,1.11-0.26,3.73-0.52,6.75c-0.8,9.18-2.14,24.42-1.33,33.22
		c0.49,5.32,3.04,7.8,8.04,7.8c0.25,0,0.49-0.01,0.72-0.02l49.45-2.66c1.55-0.08,3.01-0.83,4.12-2.12c1.3-1.5,1.97-3.54,1.8-5.46
		l-1.07-11.8c-0.36-3.96,2.94-6.92,4.93-8.33l37.74-26.73c10.72-7.59,17.95-18.52,22.74-34.38l26.7-88.34
		C428.39,220.62,424.11,213.69,418.58,211.41z"/>
	<path class="st0" d="M228.66,362.55c-0.43-16.46-9.08-30.85-23.72-39.5c-4.9-2.89-10.48-4.42-15.87-5.9
		c-4.17-1.14-8.11-2.22-11.74-3.86l-20.75-10.23c-6.75-3.38-12.92-0.44-15.8,3.71c-2.99,4.31-2.57,9.73,1.02,13.18l14.14,15.77
		c1.95,2.18,4.1,3.64,6.76,4.59l27.01,9.67c0.43,0.15,0.89,0.13,1.3-0.06c0.41-0.19,0.72-0.54,0.87-0.96
		c0.15-0.43,0.13-0.89-0.06-1.3c-0.19-0.41-0.54-0.72-0.96-0.87l-27.01-9.67c-2.17-0.78-3.78-1.87-5.38-3.66l-14.13-15.77
		c-0.04-0.04-0.07-0.08-0.11-0.11c-3.05-2.84-2.35-6.44-0.67-8.86c1.99-2.86,6.19-5.26,11.5-2.61l20.75,10.23
		c3.95,1.79,8.2,2.96,12.32,4.09c5.45,1.49,10.57,2.89,15.08,5.55c8,4.72,21.51,15.77,22.05,36.67c0.03,1.24,0.25,3.69,0.54,7.08
		c0.79,8.97,2.1,23.99,1.32,32.5c-0.33,3.67-1.7,4.89-5.2,4.7l-50.05-2.69l-0.56-0.39c-0.85-0.59-1.69-2.01-1.56-3.46l1.07-11.8
		c0.38-4.19-1.87-8.24-6.35-11.41l-37.74-26.73c-10.21-7.23-16.82-17.28-21.45-32.59l-26.74-88.47c-0.01-0.04-0.02-0.07-0.04-0.11
		c-3.15-8.27,0.31-13.09,4.23-14.71c4.77-1.97,11.4,0.04,14.83,7.68l32.61,77.76c0.18,0.42,0.5,0.74,0.92,0.92
		c0.42,0.17,0.88,0.17,1.3-0.01c0.86-0.36,1.27-1.36,0.91-2.22l-28.99-69.16l2.49-0.91c1.26-0.53,2.49-0.54,3.7-0.03
		c1.89,0.79,4.77,3.3,7.76,10.74l23,54.28c0.36,0.86,1.36,1.27,2.23,0.9c0.42-0.18,0.74-0.51,0.91-0.93
		c0.17-0.42,0.17-0.88-0.01-1.3l-22.97-54.22c-2.81-6.96-5.95-11.08-9.6-12.61c-2.04-0.85-4.24-0.84-6.37,0.05l-2.35,1.12l-2.39-5.7
		c-2.92-6.54-8.31-10.45-14.44-10.45c-1.7,0-3.33,0.32-4.83,0.94c-5.53,2.28-9.82,9.18-6.16,18.93l26.75,88.49
		c4.8,15.87,12.02,26.79,22.74,34.38l37.74,26.73c2,1.41,5.29,4.38,4.93,8.33l-1.07,11.8c-0.18,1.92,0.5,3.96,1.79,5.46
		c1.11,1.29,2.58,2.04,4.12,2.12l49.45,2.66c0.23,0.01,0.47,0.02,0.72,0.02c5,0,7.55-2.48,8.04-7.8c0.81-8.8-0.52-23.99-1.32-33.07
		C228.92,366.36,228.69,363.69,228.66,362.55z"/>
	<path class="st0" d="M250.74,127.45c1.03,0,1.88-0.84,1.88-1.88V91.54c0-1.03-0.84-1.88-1.88-1.88s-1.88,0.84-1.88,1.88v34.03
		C248.87,126.61,249.71,127.45,250.74,127.45z"/>
	<path class="st0" d="M274.36,127.43l24.06-24.06c0.73-0.73,0.73-1.92,0-2.65c-0.35-0.35-0.82-0.55-1.33-0.55
		c-0.5,0-0.97,0.19-1.33,0.55l-24.07,24.06c-0.73,0.73-0.73,1.92,0,2.65C272.4,128.12,273.67,128.12,274.36,127.43z"/>
	<path class="st0" d="M226.23,126.86c0.66,0.66,1.99,0.66,2.65,0c0.36-0.36,0.55-0.83,0.55-1.33c0-0.5-0.2-0.97-0.55-1.33
		l-24.07-24.07c-0.35-0.35-0.83-0.55-1.33-0.55c-0.5,0-0.97,0.2-1.33,0.55c-0.73,0.73-0.73,1.92,0,2.65L226.23,126.86z"/>
</g>
</svg>
