<?xml version="1.0" encoding="utf-8"?>
<!-- Generator: Adobe Illustrator 27.3.1, SVG Export Plug-In . SVG Version: 6.00 Build 0)  -->
<svg version="1.1" id="Layer_1" xmlns="http://www.w3.org/2000/svg" xmlns:xlink="http://www.w3.org/1999/xlink" x="0px" y="0px"
	 viewBox="0 0 500 500" style="enable-background:new 0 0 500 500;" xml:space="preserve">
<style type="text/css">
	.st0{fill:#808285;}
	.st1{fill:#BCBEC0;}
	.st2{fill:#A7A9AC;}
	.st3{fill:#D1D3D4;}
</style>
<g>
	<path class="st0" d="M426.08,341.06v-211.6H73.92v211.6h157.56v25.77h-76.02c-1.03,0-1.86,0.84-1.86,1.86s0.84,1.86,1.86,1.86
		h189.06c1.03,0,1.86-0.84,1.86-1.86s-0.84-1.86-1.86-1.86h-76.02v-25.77H426.08z M77.65,337.33V133.18h344.7v204.15H77.65z"/>
	<g>
		<g>
			<path class="st0" d="M369.62,249.26h-2.86V181.4c0-3.41-2.78-6.19-6.19-6.19H205.66v-2.86h154.91c4.99,0,9.05,4.06,9.05,9.05
				V249.26z"/>
		</g>
		<g>
			<path class="st0" d="M352.13,265.84h-2.86v-69.77c0-3.41-2.78-6.19-6.19-6.19H188.17v-2.86h154.91c4.99,0,9.05,4.06,9.05,9.05
				V265.84z"/>
		</g>
		<g>
			<path class="st0" d="M325.59,289.2h-153.5c-5.61,0-10.18-4.57-10.18-10.18v-69.41c0-5.61,4.56-10.18,10.18-10.18h153.5
				c5.61,0,10.18,4.57,10.18,10.18v69.41C335.76,284.64,331.2,289.2,325.59,289.2z M172.08,202.29c-4.04,0-7.32,3.28-7.32,7.32
				v69.41c0,4.04,3.28,7.32,7.32,7.32h153.5c4.04,0,7.32-3.28,7.32-7.32v-69.41c0-4.04-3.28-7.32-7.32-7.32H172.08z"/>
		</g>
		<g>
			<g>
				<path class="st0" d="M184.91,219.16h-12.24v-12.24h12.24V219.16z M173.62,218.2h10.33v-10.34h-10.33V218.2z"/>
			</g>
			<g>
				<path class="st0" d="M184.91,239.47h-12.24v-12.24h12.24V239.47z M173.62,238.52h10.33v-10.33h-10.33V238.52z"/>
			</g>
			<g>
				<path class="st0" d="M184.91,259.79h-12.24v-12.24h12.24V259.79z M173.62,258.84h10.33V248.5h-10.33V258.84z"/>
			</g>
			<g>
				<path class="st0" d="M184.91,280.1h-12.24v-12.24h12.24V280.1z M173.62,279.15h10.33v-10.34h-10.33V279.15z"/>
			</g>
		</g>
		<g>
			<g>
				<path class="st0" d="M324.05,219.16h-12.24v-12.24h12.24V219.16z M312.77,218.2h10.33v-10.34h-10.33V218.2z"/>
			</g>
			<g>
				<path class="st0" d="M324.05,239.47h-12.24v-12.24h12.24V239.47z M312.77,238.52h10.33v-10.33h-10.33V238.52z"/>
			</g>
			<g>
				<path class="st0" d="M324.05,259.79h-12.24v-12.24h12.24V259.79z M312.77,258.84h10.33V248.5h-10.33V258.84z"/>
			</g>
			<g>
				<path class="st0" d="M324.05,280.1h-12.24v-12.24h12.24V280.1z M312.77,279.15h10.33v-10.34h-10.33V279.15z"/>
			</g>
		</g>
		<g>
			<path class="st0" d="M234.52,262.98v-40.14l34.58,20.07L234.52,262.98z M237.38,227.8v30.22l26.04-15.11L237.38,227.8z"/>
		</g>
	</g>
</g>
</svg>
