<?xml version="1.0" encoding="utf-8"?>
<!-- Generator: Adobe Illustrator 27.3.1, SVG Export Plug-In . SVG Version: 6.00 Build 0)  -->
<svg version="1.1" id="Layer_1" xmlns="http://www.w3.org/2000/svg" xmlns:xlink="http://www.w3.org/1999/xlink" x="0px" y="0px"
	 viewBox="0 0 1080 1080" style="enable-background:new 0 0 1080 1080;" xml:space="preserve">
<style type="text/css">
	.st0{fill:none;}
	.st1{fill:url(#SVGID_1_);}
	.st2{fill:url(#SVGID_00000026857790308423394760000016532854743131847067_);}
	.st3{fill:url(#SVGID_00000004538690936950496820000016840110326503271871_);}
	.st4{fill:url(#SVGID_00000006698058072257367240000004166124998090104765_);}
	.st5{fill:url(#SVGID_00000080886162830871998710000014001288763455539087_);}
	.st6{fill:#231F20;}
</style>
<g>
	<g>
		<g>
			<path class="st0" d="M194.14,766.02c0.07,0.04,0.14,0.08,0.22,0.12c0,0,7.53,4.1,21.31,10.06c-0.61-0.28-1.26-0.57-1.86-0.86
				C206.88,772.35,200.34,769.23,194.14,766.02z"/>
			<path class="st0" d="M472.03,577.3h73.41c3.31,0,6.78-0.63,10.3-1.88c3.44-1.21,6.53-3.27,9.17-6.12l104.34-101.46l4.92-4.79
				c18.07-16.18,32.88-29.56,45.27-40.92c7.39-6.78,8.85-19.06,3.24-27.38c-8.4-12.47-19.5-27.82-23.72-33.61
				c-1.06-1.46-1.71-2.34-1.74-2.38l-69.15-108.9c-2.59-4.77-7.77-7.03-15.9-7.03h-77.75c-6.13,0-7.46,3-7.93,5.61
				c-0.24,1.07-0.06,3,2.07,6.54l96.47,135.11c8.73,12.22,6.95,29.08-4.14,39.21L472.45,564.96c-4.52,3.72-5.5,5.89-5.7,6.86
				c-0.31,1.86-0.12,3.26,0.59,4.09C468.32,577.06,470.43,577.3,472.03,577.3z"/>
			<linearGradient id="SVGID_1_" gradientUnits="userSpaceOnUse" x1="208.822" y1="867.0859" x2="1005.3846" y2="406.6873">
				<stop  offset="0" style="stop-color:#90267F"/>
				<stop  offset="1" style="stop-color:#DB2728"/>
			</linearGradient>
			<path class="st1" d="M592.27,626.75c-2.23-0.62-5.59-1.08-10.08-1.39c-4.49-0.31-9.28-0.46-14.34-0.46
				c-8.45,0-15.39,0.71-20.8,2.14c-5.41,1.43-9.85,3.62-13.31,6.56c-3.46,2.94-6.03,6.61-7.72,11.02
				c-1.69,4.41-3.03,9.55-4.03,15.43c-1.46,8.35-1.92,15.02-1.38,20.01c0.54,4.99,2.15,8.86,4.84,11.6
				c2.69,2.75,6.59,4.56,11.7,5.45c5.11,0.89,11.5,1.34,19.19,1.34c5.46,0,10.85-0.19,16.19-0.58c5.34-0.39,9.08-0.81,11.23-1.27
				l11.3-65.2c0.3-1.7,0.21-2.8-0.29-3.31C594.25,627.58,593.43,627.14,592.27,626.75z"/>
			
				<linearGradient id="SVGID_00000156589264887598303270000013265133117375142017_" gradientUnits="userSpaceOnUse" x1="161.8093" y1="785.7463" x2="958.3718" y2="325.3478">
				<stop  offset="0" style="stop-color:#90267F"/>
				<stop  offset="1" style="stop-color:#DB2728"/>
			</linearGradient>
			<path style="fill:url(#SVGID_00000156589264887598303270000013265133117375142017_);" d="M445.95,625.13
				c-4.08-2.24-11.41-3.36-22.01-3.36c-7.76,0-14.17,0.56-19.25,1.68c-5.07,1.12-9.26,3-12.56,5.62c-3.31,2.63-5.8,6.04-7.49,10.21
				c-1.69,4.18-3.07,9.32-4.15,15.43l-0.57,3.71l42.41-6.38c5.99-0.85,10.79-1.78,14.4-2.78c3.61-1,6.37-2.13,8.29-3.36
				c1.92-1.24,3.26-2.67,4.03-4.29c0.77-1.62,1.34-3.55,1.73-5.8C451.63,630.93,450.02,627.37,445.95,625.13z"/>
			
				<linearGradient id="SVGID_00000132773445628521393060000015339371105993357748_" gradientUnits="userSpaceOnUse" x1="121.6006" y1="716.179" x2="918.1631" y2="255.7805">
				<stop  offset="0" style="stop-color:#90267F"/>
				<stop  offset="1" style="stop-color:#DB2728"/>
			</linearGradient>
			<path style="fill:url(#SVGID_00000132773445628521393060000015339371105993357748_);" d="M957.54,324.19
				c-14.82-23.85-31.13-44.87-48.38-63.43c-1.07,1.53-2.71,3.22-4.96,5.07L755.76,401.48c-10.31,9.42-11.96,25.06-3.85,36.42
				l96.56,135.25c2,3.34,2.78,6,2.34,8.01c-0.89,4.89-4.22,7.35-10.01,7.35h-77.75c-8.89,0-14.79-2.67-17.68-8.01l-69.07-108.78
				c0,0-0.13-0.17-0.31-0.42l5.26-5.12c18.07-16.17,32.88-29.56,45.28-40.92c8.87-8.13,10.62-22.87,3.89-32.86
				c-8.72-12.95-20.32-28.96-24.16-34.22l102.51-99.69c2.89-3.12,6.23-5.34,10.01-6.67c3.78-1.34,7.45-2,11.01-2h68.81
				C763.32,114.84,577.92,121.95,577.92,121.95c-179.58,5.18-299.01,89.36-362.66,150.7c15.65-9.11,33.2-15.8,52.7-19.98
				c24.36-5.22,51.67-7.84,81.92-7.84c35.37,0,64.07,2.95,86.09,8.84c22.02,5.89,38.92,13.51,50.72,22.85
				c11.79,9.35,19.19,19.86,22.19,31.54c3,11.68,3.5,23.41,1.5,35.2c-2.45,15.13-7.01,28.26-13.68,39.38
				c-6.68,11.13-15.85,20.52-27.53,28.2c-11.68,7.67-25.92,13.96-42.71,18.85c-16.8,4.89-36.77,9.12-59.9,12.68l-110.13,14.61
				c-8.12,1.22-15.23-5.49-14.5-13.66l2.64-29.33c0.52-5.82,4.96-10.53,10.74-11.39l86.22-10.95c17.35-2.45,31.25-5.12,41.71-8.01
				c10.45-2.89,18.46-6.12,24.03-9.68c5.56-3.55,9.45-7.67,11.68-12.35c2.22-4.67,3.89-10.23,5.01-16.68
				c2.44-14.02-2.23-24.24-14.02-30.7c-11.79-6.45-33.03-9.68-63.73-9.68c-22.47,0-41.04,1.62-55.72,4.84
				c-14.68,3.23-26.81,8.62-36.37,16.18c-9.57,7.57-16.8,17.35-21.69,29.37c-1.1,2.69-2.14,5.54-3.15,8.51
				c-0.02,0.07-0.05,0.14-0.07,0.2c-0.53,1.82-4.87,17.02-8.93,36.56c-5.72,27.48-10.87,63.5-4.03,82.88
				c0.27,0.78,0.56,1.47,0.85,2.17c4.2,12.46,11.81,21.36,23.01,26.51c16.46,7.56,42.93,11.35,79.42,11.35
				c12.46,0,25.47-0.28,39.04-0.84c13.57-0.55,26.53-1.27,38.87-2.17c12.35-0.89,22.97-1.61,31.87-2.17
				c8.9-0.55,14.79-0.83,17.68-0.83c5.78,0,8.23,2.89,7.34,8.67l-4,30.03c-0.66,8.68-3.89,15.08-9.68,19.19
				c-5.79,4.12-13.57,6.73-23.36,7.84c-13.13,1.33-29.92,2.28-50.39,2.84c-20.47,0.56-43.83,0.83-70.07,0.83
				c-38.71,0-69.91-4.11-93.6-12.35c-23.69-8.23-41.54-19.8-53.55-34.7c-12.01-14.9-19.14-33.04-21.36-54.39
				c-2.23-21.36-1.11-45.49,3.34-72.41c3.01-17.49,7-33.42,11.95-47.81C87.17,467.43,72.89,547.35,79.24,608.48
				c0.39,3.25,0.87,6.49,1.4,9.73c4.8,26.44,17.21,63.76,48.68,98.45l2.26-16.69l11.33-83.78c0.92-5.49,4.88-8.85,11.87-10.09
				c7.38-1.24,15.02-2.28,22.93-3.13c7.91-0.85,16.67-1.28,26.27-1.28c6.68,0,12.85,0.52,18.5,1.57c5.65,1.04,10.23,2.42,13.77,4.12
				c4.99-1.24,10.98-2.49,17.98-3.77c6.99-1.28,14.37-1.92,22.12-1.92c36.57,0,52.51,13.65,47.82,40.95l-13.02,74.83
				c-0.31,1.7-1.69,2.55-4.14,2.55h-22.36c-2.38,0-3.42-0.85-3.11-2.55l12.33-71.11c1.46-8.35,0.67-14.11-2.36-17.29
				c-3.03-3.17-9.2-4.75-18.5-4.75c-7.61,0-14.4,0.66-20.4,1.97c-2.07,0.39-3.26,1.62-3.57,3.72l-15.21,87.47
				c-0.31,1.7-1.69,2.55-4.15,2.55h-23.16c-1.92,0-2.73-0.85-2.42-2.55l12.79-73.55c1.23-7.2,0.54-12.26-2.07-15.2
				c-2.61-2.94-9.45-4.41-20.51-4.41c-8.76,0-15.37,0.66-19.82,1.97c-2.54,0-3.99,1.24-4.38,3.72l-11.97,91.33l-2.59,19.74
				c11.19,8.84,23.97,17.24,38.59,24.94c6.2,3.21,12.74,6.33,19.67,9.32c0.6,0.28,1.25,0.57,1.86,0.86
				c30.36,13.14,91.11,35.34,168.77,42.81c4.16,0.28,8.33,0.57,12.49,0.79c53.38,2.9,103.62-0.08,150.05-6.84l9.26-1.41
				c70.87-11.2,132.56-31.1,182.57-52.05c0.18-0.07,5.26-2.15,13.75-5.92c14.51-6.4,27.92-12.82,40.17-19.07
				c10.08-5.09,20.98-10.85,32.16-17.14l-0.12,0.01c-5.46,0.66-11.23,1.16-17.34,1.48c-0.92,0.05-1.83,0.08-2.74,0.13l-0.3,0.02
				l0.01-0.01c-7.77,0.36-15.5,0.55-23.19,0.55c-13.13,0-23.47-1.04-31-3.13c-7.53-2.09-13.12-4.82-16.77-8.18
				c-3.65-3.36-5.75-7.09-6.28-11.19c-0.54-4.1-0.39-8.24,0.46-12.41c1.92-9.98,7.18-17.36,15.79-22.16
				c8.6-4.8,20.66-8.47,36.18-11.02c6.84-0.93,12.75-1.74,17.75-2.44c4.99-0.7,9.16-1.34,12.5-1.91c3.34-0.58,6.07-1.11,8.18-1.57
				c2.11-0.47,3.87-0.93,5.3-1.39c1.42-0.46,2.46-0.99,3.11-1.57c0.66-0.58,1.13-1.68,1.44-3.31c1.08-5.8-0.34-9.92-4.26-12.35
				c-3.92-2.44-11.56-3.65-22.93-3.65c-14.98,0-26.22,0.52-33.71,1.56c-7.49,1.05-12.58,1.57-15.27,1.57
				c-1.61,0-2.26-0.81-1.96-2.44l1.61-10.2c0.31-3.02,1.46-5.17,3.46-6.44c2-1.28,4.49-2.15,7.49-2.61
				c4.22-0.47,9.93-0.93,17.11-1.39c7.18-0.46,16-0.7,26.45-0.7c20.2,0,34.32,3.19,42.35,9.57c8.03,6.38,10.58,17.15,7.66,32.31
				l-11.12,57.68l-0.78,4.03c27.17-16.48,54.22-35.71,73.75-56.15c0,0-0.01-0.01-0.01-0.01
				C1074.22,500.88,957.54,324.19,957.54,324.19z M466.76,571.82c0.19-0.97,1.18-3.14,5.7-6.86l148.44-135.65
				c11.08-10.13,12.87-26.99,4.14-39.21l-96.47-135.11c-2.13-3.54-2.31-5.47-2.07-6.54c0.47-2.61,1.8-5.61,7.93-5.61h77.75
				c8.13,0,13.31,2.26,15.9,7.03l69.15,108.9c0.03,0.04,0.68,0.92,1.74,2.38c4.22,5.79,15.32,21.14,23.72,33.61
				c5.6,8.32,4.15,20.6-3.24,27.38c-12.4,11.36-27.2,24.74-45.27,40.92l-4.92,4.79L564.91,569.31c-2.64,2.85-5.72,4.9-9.17,6.12
				c-3.53,1.25-6.99,1.88-10.3,1.88h-73.41c-1.6,0-3.71-0.24-4.68-1.39C466.64,575.08,466.45,573.69,466.76,571.82z M480.63,635.22
				c-0.84,5.26-2.42,9.82-4.72,13.69c-2.31,3.87-5.48,7.13-9.51,9.8c-4.03,2.67-8.95,4.85-14.75,6.56c-5.8,1.7-12.7,3.17-20.68,4.41
				l-52.89,8c0.46,8.12,3.53,13.5,9.22,16.13c5.68,2.63,14.83,3.95,27.43,3.95c4.3,0,8.79-0.1,13.48-0.29
				c4.68-0.19,9.16-0.45,13.42-0.75c4.26-0.31,7.93-0.56,11-0.75c3.07-0.19,5.11-0.29,6.11-0.29c1.99,0,2.84,1.01,2.54,3.02
				l-1.38,10.44c-0.23,3.02-1.34,5.24-3.34,6.67c-2,1.43-4.69,2.34-8.06,2.73c-4.53,0.47-10.33,0.8-17.4,0.99
				c-7.07,0.19-15.13,0.29-24.2,0.29c-13.36,0-24.14-1.43-32.32-4.29c-8.18-2.86-14.35-6.89-18.49-12.06
				c-4.15-5.18-6.61-11.49-7.38-18.91c-0.77-7.42-0.38-15.81,1.15-25.17c1.92-11.21,4.97-20.59,9.16-28.13
				c4.19-7.54,9.45-13.55,15.79-18.04c6.34-4.49,13.71-7.64,22.12-9.45c8.41-1.82,17.84-2.73,28.29-2.73
				c12.21,0,22.12,1.02,29.73,3.07c7.61,2.05,13.44,4.7,17.52,7.95c4.07,3.25,6.63,6.91,7.66,10.96
				C481.15,627.04,481.33,631.12,480.63,635.22z M634.91,565.73l-24.43,140.95c-0.92,5.34-4.65,8.58-11.18,9.75
				c-7.68,1.08-15.06,1.97-22.12,2.67c-7.07,0.7-15.83,1.04-26.27,1.04c-14.52,0-26.06-1.37-34.63-4.12
				c-8.57-2.74-14.85-6.71-18.84-11.89c-3.99-5.18-6.16-11.48-6.51-18.91c-0.35-7.42,0.29-15.74,1.9-24.94
				c2-11.75,5.51-21.35,10.54-28.77c5.03-7.42,10.97-13.28,17.8-17.57c6.84-4.29,14.42-7.19,22.76-8.7
				c8.33-1.51,16.85-2.26,25.52-2.26c6.99,0,13.18,0.1,18.55,0.29c5.38,0.19,9.3,0.49,11.75,0.87l8.18-47.21
				c0.38-1.86,1.57-2.78,3.57-2.78h12.68C632.64,554.13,636.21,558,634.91,565.73z M697.46,608.65l-19.13,108.81
				c-0.31,1.7-1.43,2.55-3.34,2.55h-22.82c-1.92,0-2.73-0.85-2.42-2.55l17.63-100.23c1.3-7.43,6.26-11.14,14.86-11.14h12.79
				C696.96,606.1,697.76,606.95,697.46,608.65z M707.37,569.68c-1.77,9.74-8.26,14.62-19.47,14.62c-11.29,0-16.1-4.87-14.4-14.62
				c1.84-10.13,8.41-15.2,19.7-15.2C704.41,554.48,709.13,559.54,707.37,569.68z"/>
			
				<linearGradient id="SVGID_00000064324836074077201300000010817000283686696068_" gradientUnits="userSpaceOnUse" x1="275.9534" y1="983.2339" x2="1072.516" y2="522.8353">
				<stop  offset="0" style="stop-color:#90267F"/>
				<stop  offset="1" style="stop-color:#DB2728"/>
			</linearGradient>
			<path style="fill:url(#SVGID_00000064324836074077201300000010817000283686696068_);" d="M756.66,684.64
				c-1.15,5.8,1.09,9.69,6.74,11.66c5.65,1.98,13.58,2.96,23.8,2.96c5.46,0,11.1-0.24,16.94-0.7c5.84-0.47,9.99-0.93,12.45-1.39
				l6.57-33.41l-49.9,8C763.5,673.38,757.97,677.68,756.66,684.64z"/>
			
				<linearGradient id="SVGID_00000157993548189286285770000007802470042054329490_" gradientUnits="userSpaceOnUse" x1="201.5639" y1="854.5281" x2="998.1264" y2="394.1295">
				<stop  offset="0" style="stop-color:#90267F"/>
				<stop  offset="1" style="stop-color:#DB2728"/>
			</linearGradient>
			<path style="fill:url(#SVGID_00000157993548189286285770000007802470042054329490_);" d="M306.21,807.51
				c16.78,3.82,35.53,7.23,56.21,9.74c7.34,0.71,14.68,1.26,22.03,1.76c-77.66-7.47-138.41-29.67-168.77-42.81
				C239.24,787.26,269.51,798.83,306.21,807.51z"/>
		</g>
		<g>
			<g>
				<g>
					<path class="st6" d="M991.25,139.54c0,4.54-1.98,7.4-5.95,8.59l7.21,10h-5.91l-6.58-9.26h-6.1v9.26h-4.65V130.6h10.24
						c4.2,0,7.21,0.71,9.02,2.13C990.34,134.15,991.25,136.42,991.25,139.54z M985.07,143.44c0.95-0.81,1.42-2.12,1.42-3.92
						c0-1.8-0.49-3.03-1.46-3.7c-0.97-0.67-2.71-1-5.2-1h-5.91v9.85h5.79C982.33,144.66,984.12,144.25,985.07,143.44z"/>
				</g>
			</g>
			<g>
				<path class="st6" d="M979.67,166.45c-12.4,0-22.49-10.09-22.49-22.49c0-12.4,10.09-22.49,22.49-22.49s22.49,10.09,22.49,22.49
					C1002.15,156.36,992.07,166.45,979.67,166.45z M979.67,124.75c-10.59,0-19.21,8.62-19.21,19.21c0,10.59,8.62,19.21,19.21,19.21
					s19.21-8.62,19.21-19.21C998.88,133.37,990.26,124.75,979.67,124.75z"/>
			</g>
		</g>
	</g>
	<g>
		<path d="M94.97,955.17c-3.82-2.1-6.81-4.99-8.98-8.68c-2.17-3.68-3.25-7.83-3.25-12.44s1.08-8.76,3.25-12.44
			c2.17-3.68,5.17-6.58,9.02-8.68c3.84-2.1,8.14-3.15,12.89-3.15c3.7,0,7.1,0.62,10.17,1.86c3.07,1.25,5.7,3.09,7.87,5.53
			l-4.41,4.27c-3.57-3.76-8.02-5.63-13.36-5.63c-3.53,0-6.71,0.79-9.56,2.37c-2.85,1.58-5.08,3.77-6.68,6.54
			c-1.6,2.78-2.41,5.89-2.41,9.33c0,3.44,0.8,6.54,2.41,9.33c1.6,2.78,3.83,4.96,6.68,6.54c2.85,1.58,6.03,2.37,9.56,2.37
			c5.29,0,9.74-1.9,13.36-5.69l4.41,4.27c-2.17,2.44-4.8,4.3-7.9,5.56c-3.09,1.27-6.5,1.9-10.2,1.9
			C103.08,958.32,98.8,957.27,94.97,955.17z"/>
		<path d="M167.36,957.78l-10.24-14.58c-1.27,0.09-2.26,0.13-2.98,0.13h-11.73v14.45h-6.78v-47.47h18.51
			c6.15,0,10.99,1.47,14.51,4.41c3.52,2.94,5.29,6.98,5.29,12.14c0,3.66-0.9,6.79-2.71,9.36c-1.81,2.58-4.39,4.45-7.73,5.62
			l11.26,15.94H167.36z M163.77,934.79c2.26-1.85,3.39-4.49,3.39-7.93c0-3.43-1.13-6.07-3.39-7.9c-2.26-1.83-5.54-2.74-9.83-2.74
			h-11.53v21.36h11.53C158.23,937.57,161.5,936.65,163.77,934.79z"/>
		<path d="M219.37,951.88v5.9h-34.44v-47.47h33.49v5.9H191.7v14.58h23.8v5.76h-23.8v15.33H219.37z"/>
		<path d="M260.59,945.91h-25.23l-5.22,11.87h-6.98l21.5-47.47h6.71l21.57,47.47h-7.12L260.59,945.91z M258.22,940.49l-10.24-23.26
			l-10.24,23.26H258.22z"/>
		<path d="M287.04,916.22h-16.28v-5.9h39.26v5.9h-16.28v41.57h-6.71V916.22z"/>
		<path d="M317.42,910.31h6.78v47.47h-6.78V910.31z"/>
		<path d="M379.2,910.31l-20.82,47.47h-6.71l-20.89-47.47h7.32l17.09,39l17.22-39H379.2z"/>
		<path d="M419.67,951.88v5.9h-34.44v-47.47h33.49v5.9h-26.72v14.58h23.8v5.76h-23.8v15.33H419.67z"/>
		<path d="M483.62,958.53l-6.31-6.31c-4.2,4.07-9.49,6.1-15.87,6.1c-3.17,0-6.01-0.52-8.55-1.56c-2.53-1.04-4.51-2.5-5.93-4.38
			c-1.42-1.88-2.14-4.01-2.14-6.41c0-2.89,0.89-5.46,2.68-7.69c1.78-2.24,4.73-4.53,8.85-6.89c-2.08-2.08-3.55-3.95-4.4-5.62
			c-0.86-1.68-1.29-3.41-1.29-5.22c0-3.21,1.16-5.79,3.49-7.73c2.33-1.94,5.43-2.92,9.32-2.92c3.62,0,6.49,0.88,8.61,2.64
			c2.13,1.76,3.19,4.18,3.19,7.25c0,2.4-0.78,4.54-2.34,6.44c-1.56,1.9-4.15,3.89-7.76,5.97l11.73,11.67
			c1.36-2.58,2.33-5.45,2.91-8.61l5.22,1.69c-0.81,4.16-2.19,7.77-4.13,10.85l6.37,6.38L483.62,958.53z M473.45,948.43L459.95,935
			c-3.25,1.81-5.53,3.49-6.81,5.05c-1.29,1.56-1.93,3.31-1.93,5.25c0,2.26,0.98,4.09,2.95,5.49c1.96,1.4,4.53,2.1,7.7,2.1
			C466.55,952.9,470.42,951.41,473.45,948.43z M458.5,916.25c-1.2,1.06-1.8,2.45-1.8,4.17c0,1.22,0.33,2.4,0.98,3.53
			s1.93,2.66,3.83,4.61c3.12-1.76,5.28-3.27,6.48-4.54c1.2-1.27,1.8-2.64,1.8-4.14c0-1.58-0.56-2.84-1.66-3.79s-2.65-1.43-4.64-1.43
			C461.35,914.65,459.69,915.19,458.5,916.25z"/>
		<path d="M523.08,916.22h-16.28v-5.9h39.26v5.9h-16.28v41.57h-6.71V916.22z"/>
		<path d="M587.91,951.88v5.9h-34.45v-47.47h33.5v5.9h-26.72v14.58h23.8v5.76h-23.8v15.33H587.91z"/>
		<path d="M607.06,955.17c-3.82-2.1-6.81-4.99-8.98-8.68c-2.17-3.68-3.25-7.83-3.25-12.44s1.09-8.76,3.25-12.44
			c2.17-3.68,5.18-6.58,9.02-8.68c3.84-2.1,8.14-3.15,12.88-3.15c3.71,0,7.1,0.62,10.17,1.86c3.07,1.25,5.7,3.09,7.87,5.53
			l-4.41,4.27c-3.57-3.76-8.02-5.63-13.35-5.63c-3.53,0-6.72,0.79-9.56,2.37c-2.85,1.58-5.08,3.77-6.68,6.54
			c-1.61,2.78-2.41,5.89-2.41,9.33c0,3.44,0.8,6.54,2.41,9.33c1.6,2.78,3.83,4.96,6.68,6.54c2.84,1.58,6.03,2.37,9.56,2.37
			c5.29,0,9.74-1.9,13.35-5.69l4.41,4.27c-2.17,2.44-4.8,4.3-7.9,5.56c-3.1,1.27-6.5,1.9-10.21,1.9
			C615.17,958.32,610.89,957.27,607.06,955.17z"/>
		<path d="M688.54,910.31v47.47h-6.78v-21.16h-27.26v21.16h-6.78v-47.47h6.78v20.41h27.26v-20.41H688.54z"/>
		<path d="M743.6,910.31v47.47h-5.56l-28.48-35.39v35.39h-6.78v-47.47h5.56l28.48,35.4v-35.4H743.6z"/>
		<path d="M766.31,955.17c-3.84-2.1-6.86-5-9.05-8.71c-2.19-3.71-3.28-7.84-3.28-12.41c0-4.56,1.09-8.7,3.28-12.41
			c2.19-3.71,5.21-6.61,9.05-8.71c3.84-2.1,8.16-3.15,12.95-3.15c4.75,0,9.05,1.05,12.89,3.15c3.84,2.1,6.85,5,9.01,8.68
			c2.17,3.68,3.25,7.83,3.25,12.44s-1.08,8.76-3.25,12.44c-2.17,3.69-5.18,6.58-9.01,8.68c-3.84,2.1-8.14,3.15-12.89,3.15
			C774.47,958.32,770.15,957.27,766.31,955.17z M788.65,949.92c2.78-1.58,4.97-3.76,6.57-6.54c1.61-2.78,2.41-5.89,2.41-9.33
			c0-3.43-0.8-6.54-2.41-9.33c-1.6-2.78-3.79-4.96-6.57-6.54c-2.78-1.58-5.91-2.37-9.39-2.37c-3.48,0-6.63,0.79-9.46,2.37
			c-2.82,1.58-5.04,3.77-6.65,6.54c-1.6,2.78-2.4,5.89-2.4,9.33c0,3.44,0.8,6.54,2.4,9.33c1.61,2.78,3.82,4.96,6.65,6.54
			c2.82,1.58,5.98,2.37,9.46,2.37C782.74,952.29,785.87,951.5,788.65,949.92z"/>
		<path d="M814.79,910.31h6.78v41.57h25.7v5.9h-32.48V910.31z"/>
		<path d="M862.66,955.17c-3.84-2.1-6.86-5-9.05-8.71c-2.19-3.71-3.28-7.84-3.28-12.41c0-4.56,1.09-8.7,3.28-12.41
			c2.19-3.71,5.21-6.61,9.05-8.71c3.84-2.1,8.16-3.15,12.95-3.15c4.75,0,9.05,1.05,12.89,3.15c3.84,2.1,6.85,5,9.01,8.68
			c2.17,3.68,3.25,7.83,3.25,12.44s-1.08,8.76-3.25,12.44c-2.17,3.69-5.18,6.58-9.01,8.68c-3.84,2.1-8.14,3.15-12.89,3.15
			C870.83,958.32,866.51,957.27,862.66,955.17z M885.01,949.92c2.78-1.58,4.97-3.76,6.57-6.54c1.61-2.78,2.41-5.89,2.41-9.33
			c0-3.43-0.8-6.54-2.41-9.33c-1.6-2.78-3.79-4.96-6.57-6.54c-2.78-1.58-5.91-2.37-9.39-2.37c-3.48,0-6.63,0.79-9.46,2.37
			c-2.82,1.58-5.04,3.77-6.65,6.54c-1.6,2.78-2.4,5.89-2.4,9.33c0,3.44,0.8,6.54,2.4,9.33c1.61,2.78,3.82,4.96,6.65,6.54
			c2.82,1.58,5.98,2.37,9.46,2.37C879.1,952.29,882.23,951.5,885.01,949.92z"/>
		<path d="M944.04,933.77h6.51v18.51c-2.35,1.94-5.08,3.44-8.2,4.48c-3.12,1.04-6.38,1.56-9.77,1.56c-4.79,0-9.11-1.05-12.95-3.15
			c-3.84-2.1-6.86-4.99-9.05-8.68c-2.2-3.68-3.29-7.83-3.29-12.44s1.09-8.77,3.29-12.48c2.19-3.71,5.22-6.6,9.08-8.68
			c3.87-2.07,8.22-3.12,13.06-3.12c3.79,0,7.24,0.62,10.34,1.86c3.1,1.25,5.73,3.07,7.9,5.46l-4.2,4.2
			c-3.8-3.66-8.39-5.49-13.77-5.49c-3.61,0-6.86,0.78-9.73,2.34c-2.87,1.56-5.12,3.73-6.75,6.51c-1.63,2.78-2.44,5.91-2.44,9.39
			c0,3.44,0.81,6.54,2.44,9.33c1.63,2.78,3.88,4.96,6.75,6.54c2.87,1.58,6.09,2.37,9.66,2.37c4.25,0,7.96-1.02,11.13-3.05V933.77z"
			/>
		<path d="M981.67,941.37v16.41h-6.71v-16.55l-18.85-30.92h7.25l15.19,25.03l15.25-25.03h6.71L981.67,941.37z"/>
	</g>
</g>
</svg>
